<svg width="1119" height="274" viewBox="0 0 1119 274" fill="none" xmlns="http://www.w3.org/2000/svg">
<mask id="mask0_2_9620" style="mask-type:alpha" maskUnits="userSpaceOnUse" x="0" y="0" width="1119" height="274">
<rect width="1119" height="274" fill="white"/>
</mask>
<g mask="url(#mask0_2_9620)">
<g filter="url(#filter0_d_2_9620)">
<g clip-path="url(#clip0_2_9620)">
<rect x="170" y="10" width="764" height="429.75" rx="12.8011" fill="white"/>
<rect width="548.617" height="429.75" transform="translate(385.789 10)" fill="#E1E3ED"/>
<g filter="url(#filter1_d_2_9620)">
<rect width="549" height="33.425" transform="translate(385.789 48.2)" fill="#F3F4FA"/>
<g clip-path="url(#clip1_2_9620)">
<path d="M410.858 63.1219V62.525C410.858 61.8657 410.323 61.3312 409.664 61.3312H404.889C404.23 61.3312 403.695 61.8657 403.695 62.525V67.3C403.695 67.9593 404.23 68.4937 404.889 68.4937H405.486" stroke="#4956E3" stroke-width="1.19375" stroke-linecap="round" stroke-linejoin="round"/>
<path d="M408.47 66.7031L410.261 68.4937L410.858 67.8969L409.067 66.1062L409.962 65.2109L406.68 64.3156L407.575 67.5984L408.47 66.7031Z" fill="#4956E3" stroke="#4956E3" stroke-width="1.19375" stroke-linejoin="round"/>
</g>
<path d="M397.727 55.9594H416.827V54.7656H397.727V55.9594ZM418.617 57.75V72.075H419.811V57.75H418.617ZM416.827 73.8656H397.727V75.0594H416.827V73.8656ZM395.936 72.075V57.75H394.742V72.075H395.936ZM397.727 73.8656C396.738 73.8656 395.936 73.0639 395.936 72.075H394.742C394.742 73.7232 396.078 75.0594 397.727 75.0594V73.8656ZM418.617 72.075C418.617 73.0639 417.815 73.8656 416.827 73.8656V75.0594C418.475 75.0594 419.811 73.7232 419.811 72.075H418.617ZM416.827 55.9594C417.815 55.9594 418.617 56.7611 418.617 57.75H419.811C419.811 56.1018 418.475 54.7656 416.827 54.7656V55.9594ZM397.727 54.7656C396.078 54.7656 394.742 56.1018 394.742 57.75H395.936C395.936 56.7611 396.738 55.9594 397.727 55.9594V54.7656Z" fill="#D0D2E0"/>
<rect x="426.675" y="55.6609" width="436.191" height="18.5031" rx="2.08906" fill="white"/>
<path d="M428.764 55.6609H449.953V74.164H428.764C427.61 74.164 426.675 73.2287 426.675 72.075V57.75C426.675 56.5962 427.61 55.6609 428.764 55.6609Z" fill="#F3F4FA"/>
<path d="M435.927 63.7188L438.314 66.1062L440.702 63.7188" stroke="#9095AD" stroke-width="1.19375" stroke-linecap="round" stroke-linejoin="round"/>
<path d="M428.764 55.6609H449.953V74.164H428.764C427.61 74.164 426.675 73.2287 426.675 72.075V57.75C426.675 56.5962 427.61 55.6609 428.764 55.6609Z" stroke="#D0D2E0" stroke-width="0.596875"/>
<line x1="456.914" y1="72.114" x2="457.914" y2="72.114" stroke="#BFC2D4" stroke-width="0.596875" stroke-dasharray="1.19 1.19"/>
<rect x="426.675" y="55.6609" width="436.191" height="18.5031" rx="2.08906" stroke="#D0D2E0" stroke-width="0.596875"/>
<path d="M881.07 61.3312C881.07 61.0016 881.338 60.7344 881.667 60.7344H882.861C883.191 60.7344 883.458 61.0016 883.458 61.3312V61.9281C883.458 62.2578 883.191 62.525 882.861 62.525H881.667C881.338 62.525 881.07 62.2578 881.07 61.9281V61.3312Z" fill="#D0D2E0"/>
<path d="M879.578 61.6806C879.23 61.8035 878.981 62.1352 878.981 62.525V68.1953C878.981 68.6898 879.382 69.0906 879.877 69.0906H884.652C885.146 69.0906 885.547 68.6898 885.547 68.1953V62.525C885.547 62.1352 885.298 61.8035 884.95 61.6806M881.667 62.525H882.861C883.191 62.525 883.458 62.2578 883.458 61.9281V61.3312C883.458 61.0016 883.191 60.7344 882.861 60.7344H881.667C881.338 60.7344 881.07 61.0016 881.07 61.3312V61.9281C881.07 62.2578 881.338 62.525 881.667 62.525Z" stroke="#9095AD" stroke-width="1.19375" stroke-linecap="round" stroke-linejoin="round"/>
<path d="M872.714 55.9594H891.814V54.7656H872.714V55.9594ZM893.605 57.75V72.075H894.798V57.75H893.605ZM891.814 73.8656H872.714V75.0594H891.814V73.8656ZM870.923 72.075V57.75H869.73V72.075H870.923ZM872.714 73.8656C871.725 73.8656 870.923 73.0639 870.923 72.075H869.73C869.73 73.7232 871.066 75.0594 872.714 75.0594V73.8656ZM893.605 72.075C893.605 73.0639 892.803 73.8656 891.814 73.8656V75.0594C893.462 75.0594 894.798 73.7232 894.798 72.075H893.605ZM891.814 55.9594C892.803 55.9594 893.605 56.7611 893.605 57.75H894.798C894.798 56.1018 893.462 54.7656 891.814 54.7656V55.9594ZM872.714 54.7656C871.066 54.7656 869.73 56.1018 869.73 57.75H870.923C870.923 56.7611 871.725 55.9594 872.714 55.9594V54.7656Z" fill="#D0D2E0"/>
<path d="M917.48 61.9281C917.48 61.2688 916.945 60.7344 916.286 60.7344H910.317C909.658 60.7344 909.123 61.2688 909.123 61.9281V62.525H917.48V61.9281Z" fill="#D0D2E0"/>
<path fill-rule="evenodd" clip-rule="evenodd" d="M917.48 61.9281C917.48 61.2688 916.945 60.7344 916.286 60.7344H910.317C909.658 60.7344 909.123 61.2688 909.123 61.9281V62.525H917.48V61.9281Z" fill="#D0D2E0"/>
<path d="M909.123 62.525V67.8969C909.123 68.5562 909.658 69.0906 910.317 69.0906H916.286C916.945 69.0906 917.48 68.5562 917.48 67.8969V62.525M909.123 62.525V61.9281C909.123 61.2688 909.658 60.7344 910.317 60.7344H916.286C916.945 60.7344 917.48 61.2688 917.48 61.9281V62.525M909.123 62.525H917.48M911.511 64.9125L912.406 65.8078L911.511 66.7031" stroke="#9095AD" stroke-width="1.19375" stroke-linecap="round" stroke-linejoin="round"/>
<path d="M903.752 55.9594H922.852V54.7656H903.752V55.9594ZM924.642 57.75V72.075H925.836V57.75H924.642ZM922.852 73.8656H903.752V75.0594H922.852V73.8656ZM901.961 72.075V57.75H900.767V72.075H901.961ZM903.752 73.8656C902.763 73.8656 901.961 73.0639 901.961 72.075H900.767C900.767 73.7232 902.103 75.0594 903.752 75.0594V73.8656ZM924.642 72.075C924.642 73.0639 923.84 73.8656 922.852 73.8656V75.0594C924.5 75.0594 925.836 73.7232 925.836 72.075H924.642ZM922.852 55.9594C923.84 55.9594 924.642 56.7611 924.642 57.75H925.836C925.836 56.1018 924.5 54.7656 922.852 54.7656V55.9594ZM903.752 54.7656C902.103 54.7656 900.767 56.1018 900.767 57.75H901.961C901.961 56.7611 902.763 55.9594 903.752 55.9594V54.7656Z" fill="#D0D2E0"/>
</g>
<g filter="url(#filter2_b_2_9620)">
<rect width="549" height="38.2" transform="translate(385.789 10)" fill="white" fill-opacity="0.95"/>
<line opacity="0.06" x1="385.789" y1="48.4984" x2="934.914" y2="48.4984" stroke="#1B1E2E" stroke-width="0.596875"/>
<g clip-path="url(#clip2_2_9620)">
<path d="M407.277 30.2937C407.936 30.2937 408.47 29.7593 408.47 29.1C408.47 28.4407 407.936 27.9062 407.277 27.9062C406.617 27.9062 406.083 28.4407 406.083 29.1C406.083 29.7593 406.617 30.2937 407.277 30.2937Z" fill="#9095AD"/>
<path fill-rule="evenodd" clip-rule="evenodd" d="M408.47 29.1C408.47 29.7593 407.936 30.2937 407.277 30.2937C406.617 30.2937 406.083 29.7593 406.083 29.1C406.083 28.4407 406.617 27.9062 407.277 27.9062C407.936 27.9062 408.47 28.4407 408.47 29.1Z" fill="#9095AD"/>
<path d="M410.858 29.1C410.858 31.0779 409.254 32.6812 407.277 32.6812C405.299 32.6812 403.695 31.0779 403.695 29.1C403.695 27.1221 405.299 25.5187 407.277 25.5187C409.254 25.5187 410.858 27.1221 410.858 29.1ZM408.47 29.1C408.47 29.7593 407.936 30.2937 407.277 30.2937C406.617 30.2937 406.083 29.7593 406.083 29.1C406.083 28.4407 406.617 27.9062 407.277 27.9062C407.936 27.9062 408.47 28.4407 408.47 29.1Z" stroke="#747994" stroke-width="1.19375"/>
</g>
<path d="M397.727 20.1469H416.827V18.9531H397.727V20.1469ZM418.617 21.9375V36.2625H419.811V21.9375H418.617ZM416.827 38.0531H397.727V39.2469H416.827V38.0531ZM395.936 36.2625V21.9375H394.742V36.2625H395.936ZM397.727 38.0531C396.738 38.0531 395.936 37.2514 395.936 36.2625H394.742C394.742 37.9107 396.078 39.2469 397.727 39.2469V38.0531ZM418.617 36.2625C418.617 37.2514 417.815 38.0531 416.827 38.0531V39.2469C418.475 39.2469 419.811 37.9107 419.811 36.2625H418.617ZM416.827 20.1469C417.815 20.1469 418.617 20.9486 418.617 21.9375H419.811C419.811 20.2893 418.475 18.9531 416.827 18.9531V20.1469ZM397.727 18.9531C396.078 18.9531 394.742 20.2893 394.742 21.9375H395.936C395.936 20.9486 396.738 20.1469 397.727 20.1469V18.9531Z" fill="#E1E3ED"/>
<path d="M426.377 21.9375C426.377 20.6189 427.445 19.55 428.764 19.55H447.864C449.183 19.55 450.252 20.6189 450.252 21.9375V36.2625C450.252 37.5811 449.183 38.65 447.864 38.65H428.764C427.445 38.65 426.377 37.5811 426.377 36.2625V21.9375Z" fill="#F3F4FA"/>
<path fill-rule="evenodd" clip-rule="evenodd" d="M438.314 24.325C438.644 24.325 438.911 24.5922 438.911 24.9219V24.9642C440.741 25.2259 442.188 26.6733 442.45 28.5031H442.492C442.822 28.5031 443.089 28.7704 443.089 29.1C443.089 29.4297 442.822 29.6969 442.492 29.6969H442.45C442.188 31.5267 440.741 32.9741 438.911 33.2358V33.2781C438.911 33.6078 438.644 33.875 438.314 33.875C437.984 33.875 437.717 33.6078 437.717 33.2781V33.2358C435.887 32.9741 434.44 31.5267 434.178 29.6969H434.136C433.806 29.6969 433.539 29.4297 433.539 29.1C433.539 28.7704 433.806 28.5031 434.136 28.5031H434.178C434.44 26.6733 435.887 25.2259 437.717 24.9642V24.9219C437.717 24.5922 437.984 24.325 438.314 24.325ZM437.717 26.1753C436.548 26.4127 435.627 27.3338 435.389 28.5031H435.927C436.256 28.5031 436.523 28.7704 436.523 29.1C436.523 29.4297 436.256 29.6969 435.927 29.6969H435.389C435.627 30.8662 436.548 31.7873 437.717 32.0247V31.4875C437.717 31.1579 437.984 30.8906 438.314 30.8906C438.644 30.8906 438.911 31.1579 438.911 31.4875V32.0247C440.08 31.7873 441.001 30.8662 441.239 29.6969H440.702C440.372 29.6969 440.105 29.4297 440.105 29.1C440.105 28.7704 440.372 28.5031 440.702 28.5031H441.239C441.001 27.3338 440.08 26.4127 438.911 26.1753V26.7125C438.911 27.0422 438.644 27.3094 438.314 27.3094C437.984 27.3094 437.717 27.0422 437.717 26.7125V26.1753Z" fill="#4956E3"/>
<path d="M438.911 29.1C438.911 28.7704 438.644 28.5031 438.314 28.5031C437.984 28.5031 437.717 28.7704 437.717 29.1C437.717 29.4297 437.984 29.6969 438.314 29.6969C438.644 29.6969 438.911 29.4297 438.911 29.1Z" fill="#4956E3"/>
<path d="M428.764 20.1469H447.864V18.9531H428.764V20.1469ZM449.655 21.9375V36.2625H450.848V21.9375H449.655ZM447.864 38.0531H428.764V39.2469H447.864V38.0531ZM426.973 36.2625V21.9375H425.78V36.2625H426.973ZM428.764 38.0531C427.775 38.0531 426.973 37.2514 426.973 36.2625H425.78C425.78 37.9107 427.116 39.2469 428.764 39.2469V38.0531ZM449.655 36.2625C449.655 37.2514 448.853 38.0531 447.864 38.0531V39.2469C449.512 39.2469 450.848 37.9107 450.848 36.2625H449.655ZM447.864 20.1469C448.853 20.1469 449.655 20.9486 449.655 21.9375H450.848C450.848 20.2893 449.512 18.9531 447.864 18.9531V20.1469ZM428.764 18.9531C427.116 18.9531 425.78 20.2893 425.78 21.9375H426.973C426.973 20.9486 427.775 20.1469 428.764 20.1469V18.9531Z" fill="#E1E3ED"/>
</g>
<g clip-path="url(#clip3_2_9620)">
<rect x="400.419" y="95.0364" width="524.332" height="358.43" rx="3.65745" fill="white"/>
<rect x="513.069" y="95.0368" width="411.682" height="39.4273" fill="#4956E3"/>
<path d="M677.719 117.789L676.374 115.347H675.996V117.789H674.42V111.319H677.065C677.575 111.319 678.008 111.408 678.365 111.587C678.727 111.765 678.998 112.011 679.176 112.324C679.354 112.631 679.443 112.975 679.443 113.356C679.443 113.786 679.32 114.17 679.074 114.508C678.835 114.846 678.478 115.086 678.005 115.227L679.498 117.789H677.719ZM675.996 114.232H676.973C677.262 114.232 677.477 114.161 677.618 114.02C677.766 113.878 677.839 113.679 677.839 113.421C677.839 113.175 677.766 112.981 677.618 112.84C677.477 112.699 677.262 112.628 676.973 112.628H675.996V114.232ZM685.28 115.135C685.28 115.282 685.271 115.436 685.253 115.596H681.686C681.71 115.915 681.812 116.161 681.99 116.333C682.174 116.499 682.399 116.582 682.663 116.582C683.056 116.582 683.329 116.416 683.483 116.084H685.161C685.075 116.422 684.918 116.726 684.69 116.997C684.469 117.267 684.19 117.479 683.852 117.633C683.514 117.786 683.136 117.863 682.718 117.863C682.214 117.863 681.766 117.756 681.372 117.541C680.979 117.326 680.672 117.018 680.451 116.619C680.23 116.22 680.119 115.753 680.119 115.218C680.119 114.683 680.227 114.216 680.442 113.817C680.663 113.418 680.97 113.11 681.363 112.895C681.756 112.68 682.208 112.573 682.718 112.573C683.216 112.573 683.658 112.677 684.045 112.886C684.432 113.095 684.734 113.393 684.949 113.78C685.17 114.167 685.28 114.619 685.28 115.135ZM683.667 114.72C683.667 114.45 683.575 114.235 683.391 114.075C683.207 113.915 682.976 113.835 682.7 113.835C682.435 113.835 682.211 113.912 682.027 114.066C681.849 114.219 681.738 114.438 681.695 114.72H683.667ZM685.798 115.209C685.798 114.68 685.897 114.216 686.093 113.817C686.296 113.418 686.57 113.11 686.914 112.895C687.258 112.68 687.642 112.573 688.066 112.573C688.428 112.573 688.745 112.646 689.015 112.794C689.292 112.941 689.504 113.135 689.651 113.375V112.646H691.227V117.789H689.651V117.061C689.497 117.301 689.282 117.494 689.006 117.642C688.736 117.789 688.419 117.863 688.057 117.863C687.639 117.863 687.258 117.756 686.914 117.541C686.57 117.319 686.296 117.009 686.093 116.61C685.897 116.204 685.798 115.737 685.798 115.209ZM689.651 115.218C689.651 114.825 689.54 114.514 689.319 114.287C689.104 114.06 688.84 113.946 688.527 113.946C688.213 113.946 687.946 114.06 687.725 114.287C687.51 114.508 687.402 114.815 687.402 115.209C687.402 115.602 687.51 115.915 687.725 116.149C687.946 116.376 688.213 116.49 688.527 116.49C688.84 116.49 689.104 116.376 689.319 116.149C689.54 115.921 689.651 115.611 689.651 115.218ZM693.943 110.969V117.789H692.367V110.969H693.943ZM705.942 111.319L704.255 117.789H702.348L701.315 113.531L700.246 117.789H698.338L696.698 111.319H698.384L699.315 116.029L700.467 111.319H702.2L703.306 116.029L704.246 111.319H705.942ZM709.074 117.863C708.57 117.863 708.115 117.756 707.71 117.541C707.31 117.326 706.994 117.018 706.76 116.619C706.533 116.22 706.419 115.753 706.419 115.218C706.419 114.69 706.536 114.226 706.769 113.826C707.003 113.421 707.322 113.11 707.728 112.895C708.133 112.68 708.588 112.573 709.092 112.573C709.596 112.573 710.051 112.68 710.456 112.895C710.862 113.11 711.181 113.421 711.415 113.826C711.648 114.226 711.765 114.69 711.765 115.218C711.765 115.746 711.645 116.213 711.405 116.619C711.172 117.018 710.849 117.326 710.438 117.541C710.032 117.756 709.577 117.863 709.074 117.863ZM709.074 116.499C709.375 116.499 709.63 116.388 709.839 116.167C710.054 115.946 710.161 115.63 710.161 115.218C710.161 114.806 710.057 114.49 709.848 114.269C709.645 114.047 709.393 113.937 709.092 113.937C708.785 113.937 708.53 114.047 708.327 114.269C708.124 114.484 708.023 114.8 708.023 115.218C708.023 115.63 708.121 115.946 708.318 116.167C708.521 116.388 708.773 116.499 709.074 116.499ZM714.177 113.504C714.361 113.221 714.592 113 714.868 112.84C715.145 112.674 715.452 112.591 715.79 112.591V114.259H715.357C714.964 114.259 714.669 114.345 714.472 114.517C714.275 114.683 714.177 114.978 714.177 115.402V117.789H712.601V112.646H714.177V113.504ZM718.119 110.969V117.789H716.543V110.969H718.119ZM718.948 115.209C718.948 114.68 719.047 114.216 719.243 113.817C719.446 113.418 719.719 113.11 720.063 112.895C720.408 112.68 720.792 112.573 721.216 112.573C721.553 112.573 721.861 112.643 722.137 112.785C722.42 112.926 722.641 113.117 722.801 113.356V110.969H724.377V117.789H722.801V117.052C722.653 117.298 722.441 117.494 722.165 117.642C721.895 117.789 721.578 117.863 721.216 117.863C720.792 117.863 720.408 117.756 720.063 117.541C719.719 117.319 719.446 117.009 719.243 116.61C719.047 116.204 718.948 115.737 718.948 115.209ZM722.801 115.218C722.801 114.825 722.69 114.514 722.469 114.287C722.254 114.06 721.99 113.946 721.676 113.946C721.363 113.946 721.096 114.06 720.875 114.287C720.659 114.508 720.552 114.815 720.552 115.209C720.552 115.602 720.659 115.915 720.875 116.149C721.096 116.376 721.363 116.49 721.676 116.49C721.99 116.49 722.254 116.376 722.469 116.149C722.69 115.921 722.801 115.611 722.801 115.218ZM731.498 116.647H729.083L728.696 117.789H727.046L729.387 111.319H731.212L733.553 117.789H731.885L731.498 116.647ZM731.092 115.43L730.291 113.061L729.498 115.43H731.092ZM735.842 113.375C735.996 113.135 736.207 112.941 736.478 112.794C736.748 112.646 737.065 112.573 737.427 112.573C737.851 112.573 738.235 112.68 738.579 112.895C738.923 113.11 739.194 113.418 739.39 113.817C739.593 114.216 739.695 114.68 739.695 115.209C739.695 115.737 739.593 116.204 739.39 116.61C739.194 117.009 738.923 117.319 738.579 117.541C738.235 117.756 737.851 117.863 737.427 117.863C737.071 117.863 736.754 117.789 736.478 117.642C736.207 117.494 735.996 117.304 735.842 117.071V120.241H734.266V112.646H735.842V113.375ZM738.091 115.209C738.091 114.815 737.98 114.508 737.759 114.287C737.544 114.06 737.277 113.946 736.957 113.946C736.644 113.946 736.376 114.06 736.155 114.287C735.94 114.514 735.833 114.825 735.833 115.218C735.833 115.611 735.94 115.921 736.155 116.149C736.376 116.376 736.644 116.49 736.957 116.49C737.27 116.49 737.538 116.376 737.759 116.149C737.98 115.915 738.091 115.602 738.091 115.209ZM742.097 113.375C742.251 113.135 742.463 112.941 742.733 112.794C743.004 112.646 743.32 112.573 743.683 112.573C744.107 112.573 744.491 112.68 744.835 112.895C745.179 113.11 745.449 113.418 745.646 113.817C745.849 114.216 745.95 114.68 745.95 115.209C745.95 115.737 745.849 116.204 745.646 116.61C745.449 117.009 745.179 117.319 744.835 117.541C744.491 117.756 744.107 117.863 743.683 117.863C743.326 117.863 743.01 117.789 742.733 117.642C742.463 117.494 742.251 117.304 742.097 117.071V120.241H740.521V112.646H742.097V113.375ZM744.346 115.209C744.346 114.815 744.236 114.508 744.014 114.287C743.799 114.06 743.532 113.946 743.213 113.946C742.899 113.946 742.632 114.06 742.411 114.287C742.196 114.514 742.088 114.825 742.088 115.218C742.088 115.611 742.196 115.921 742.411 116.149C742.632 116.376 742.899 116.49 743.213 116.49C743.526 116.49 743.793 116.376 744.014 116.149C744.236 115.915 744.346 115.602 744.346 115.209Z" fill="white"/>
<g clip-path="url(#clip4_2_9620)">
<path d="M664.637 109.374H653.372C653.101 109.375 652.84 109.483 652.648 109.675C652.457 109.867 652.349 110.127 652.348 110.399V119.615C652.349 119.887 652.457 120.147 652.648 120.339C652.84 120.531 653.101 120.639 653.372 120.639H664.637C664.909 120.639 665.169 120.531 665.361 120.339C665.553 120.147 665.661 119.887 665.661 119.615V110.399C665.661 110.127 665.553 109.867 665.361 109.675C665.169 109.483 664.909 109.375 664.637 109.374V109.374ZM655.164 112.959C655.013 112.959 654.864 112.914 654.738 112.829C654.611 112.745 654.513 112.625 654.455 112.485C654.397 112.344 654.381 112.19 654.411 112.041C654.441 111.892 654.514 111.755 654.621 111.648C654.729 111.54 654.866 111.467 655.015 111.437C655.164 111.408 655.318 111.423 655.458 111.481C655.599 111.539 655.719 111.638 655.803 111.764C655.887 111.89 655.932 112.039 655.932 112.191C655.932 112.394 655.852 112.59 655.708 112.734C655.563 112.878 655.368 112.959 655.164 112.959V112.959ZM657.725 112.959C657.573 112.959 657.424 112.914 657.298 112.829C657.172 112.745 657.073 112.625 657.015 112.485C656.957 112.344 656.942 112.19 656.971 112.041C657.001 111.892 657.074 111.755 657.182 111.648C657.289 111.54 657.426 111.467 657.575 111.437C657.724 111.408 657.878 111.423 658.019 111.481C658.159 111.539 658.279 111.638 658.363 111.764C658.448 111.89 658.493 112.039 658.493 112.191C658.493 112.394 658.412 112.59 658.268 112.734C658.124 112.878 657.928 112.959 657.725 112.959V112.959Z" fill="white"/>
</g>
<path d="M880.715 108.861C880.715 107.73 881.632 106.813 882.763 106.813H904.956C906.087 106.813 907.004 107.73 907.004 108.861V121.15C907.004 122.281 906.087 123.198 904.956 123.198H882.763C881.632 123.198 880.715 122.281 880.715 121.15V108.861Z" fill="white"/>
<path d="M887.295 116.505H888.198V113.67H888.216L890.178 116.505H890.964V112.176H890.061V114.99H890.043L888.087 112.176H887.295V116.505ZM891.687 116.505H894.556V115.758H892.593V114.669H894.445V113.961H892.593V112.923H894.556V112.176H891.687V116.505ZM896.125 116.505H897.01L897.808 113.604H897.826L898.621 116.505H899.506L900.655 112.176H899.716L899.029 115.278H899.011L898.213 112.176H897.418L896.62 115.278H896.602L895.918 112.176H894.979L896.125 116.505Z" fill="#003220"/>
<rect x="400.164" y="94.7807" width="113.161" height="358.942" fill="white" stroke="#C4C4C4" stroke-width="0.512043"/>
<circle cx="424.484" cy="124.223" r="10.2409" fill="#9095AD"/>
<g clip-path="url(#clip5_2_9620)">
<path d="M422.694 260.283L418.854 256.792C418.713 256.663 418.528 256.591 418.337 256.591C418.146 256.591 417.961 256.663 417.82 256.792L413.98 260.283C413.901 260.355 413.838 260.443 413.795 260.541C413.751 260.639 413.729 260.745 413.729 260.852V265.273C413.727 265.466 413.795 265.653 413.921 265.799C413.993 265.881 414.082 265.946 414.181 265.991C414.28 266.036 414.388 266.059 414.497 266.058H416.799C416.901 266.058 416.999 266.018 417.071 265.946C417.143 265.874 417.183 265.776 417.183 265.674V263.37C417.183 263.268 417.224 263.17 417.296 263.098C417.368 263.026 417.466 262.986 417.568 262.986H419.104C419.205 262.986 419.303 263.026 419.375 263.098C419.447 263.17 419.488 263.268 419.488 263.37V265.674C419.488 265.776 419.528 265.874 419.6 265.946C419.672 266.018 419.77 266.058 419.872 266.058H422.179C422.305 266.06 422.429 266.029 422.54 265.969C422.663 265.903 422.765 265.805 422.837 265.685C422.908 265.566 422.946 265.429 422.946 265.29V260.852C422.946 260.745 422.923 260.639 422.88 260.541C422.837 260.443 422.773 260.355 422.694 260.283V260.283Z" fill="#9095AD"/>
</g>
<rect x="440.615" y="114.237" width="33.2828" height="9.72881" rx="4.35236" fill="#9095AD" stroke="white" stroke-width="0.512043"/>
<rect x="413.996" y="161.859" width="27.1383" height="9.72881" rx="4.35236" fill="#9095AD" stroke="white" stroke-width="0.512043"/>
<rect x="413.995" y="176.196" width="53.7645" height="5.63247" rx="2.81623" fill="#BFC2D4" stroke="white" stroke-width="0.512043"/>
<rect x="432.937" y="259.146" width="34.8189" height="5.63247" rx="2.81623" fill="#BFC2D4" stroke="white" stroke-width="0.512043"/>
<rect x="440.615" y="127.551" width="34.8189" height="5.63247" rx="2.81623" fill="#BFC2D4" stroke="white" stroke-width="0.512043"/>
<circle cx="541.226" cy="166.211" r="10.2409" fill="#A3E7CB"/>
<rect x="559.66" y="156.994" width="49.1561" height="9.21677" rx="4.09634" fill="#9095AD"/>
<rect x="559.66" y="171.331" width="98.3122" height="5.12043" rx="2.56021" fill="#BFC2D4"/>
<path d="M875.095 163.028H873.132V165.019H872.349V163.028H870.395V162.318H872.349V160.318H873.132V162.318H875.095V163.028ZM880.742 164.282C880.742 164.577 880.668 164.859 880.52 165.13C880.373 165.394 880.155 165.615 879.866 165.793C879.583 165.971 879.242 166.073 878.843 166.097V166.844H878.345V166.097C877.786 166.048 877.331 165.87 876.981 165.563C876.631 165.249 876.453 164.853 876.447 164.374H877.341C877.365 164.632 877.46 164.856 877.626 165.047C877.798 165.237 878.038 165.357 878.345 165.406V163.102C877.934 162.997 877.602 162.89 877.35 162.779C877.098 162.669 876.883 162.497 876.705 162.263C876.526 162.03 876.437 161.716 876.437 161.323C876.437 160.825 876.609 160.414 876.954 160.088C877.304 159.762 877.768 159.581 878.345 159.544V158.779H878.843V159.544C879.365 159.587 879.786 159.756 880.106 160.051C880.425 160.34 880.61 160.718 880.659 161.185H879.765C879.734 160.97 879.639 160.776 879.479 160.604C879.319 160.426 879.107 160.309 878.843 160.254V162.503C879.249 162.607 879.577 162.715 879.829 162.825C880.087 162.93 880.302 163.099 880.474 163.332C880.653 163.566 880.742 163.882 880.742 164.282ZM877.295 161.277C877.295 161.578 877.384 161.808 877.562 161.968C877.74 162.128 878.001 162.26 878.345 162.365V160.235C878.026 160.266 877.771 160.371 877.58 160.549C877.39 160.721 877.295 160.964 877.295 161.277ZM878.843 165.415C879.175 165.378 879.433 165.259 879.617 165.056C879.808 164.853 879.903 164.61 879.903 164.328C879.903 164.027 879.811 163.796 879.626 163.636C879.442 163.471 879.181 163.338 878.843 163.24V165.415ZM883.268 164.254C883.329 164.604 883.47 164.875 883.692 165.065C883.919 165.256 884.223 165.351 884.604 165.351C885.114 165.351 885.489 165.151 885.729 164.752C885.974 164.352 886.091 163.679 886.079 162.733C885.95 163.01 885.735 163.228 885.434 163.388C885.133 163.541 884.798 163.618 884.429 163.618C884.017 163.618 883.649 163.535 883.323 163.369C883.003 163.197 882.752 162.948 882.567 162.623C882.383 162.297 882.291 161.904 882.291 161.443C882.291 160.785 882.481 160.257 882.862 159.858C883.243 159.452 883.784 159.249 884.484 159.249C885.345 159.249 885.947 159.529 886.291 160.088C886.641 160.647 886.816 161.48 886.816 162.586C886.816 163.36 886.745 163.999 886.604 164.503C886.469 165.007 886.235 165.391 885.904 165.655C885.578 165.919 885.129 166.051 884.558 166.051C883.931 166.051 883.443 165.882 883.093 165.544C882.742 165.206 882.543 164.776 882.493 164.254H883.268ZM884.567 162.908C884.979 162.908 885.317 162.782 885.581 162.53C885.845 162.272 885.977 161.925 885.977 161.489C885.977 161.028 885.848 160.656 885.59 160.374C885.332 160.091 884.97 159.95 884.503 159.95C884.073 159.95 883.729 160.085 883.47 160.355C883.219 160.626 883.093 160.982 883.093 161.424C883.093 161.873 883.219 162.232 883.47 162.503C883.722 162.773 884.088 162.908 884.567 162.908ZM891.709 160.964C891.574 160.282 891.153 159.941 890.446 159.941C889.9 159.941 889.491 160.153 889.221 160.577C888.95 160.994 888.818 161.686 888.824 162.65C888.966 162.331 889.199 162.082 889.525 161.904C889.857 161.719 890.225 161.627 890.631 161.627C891.264 161.627 891.768 161.824 892.142 162.217C892.523 162.61 892.714 163.154 892.714 163.848C892.714 164.266 892.631 164.641 892.465 164.973C892.305 165.305 892.059 165.569 891.728 165.766C891.402 165.962 891.006 166.06 890.539 166.06C889.906 166.06 889.411 165.919 889.055 165.637C888.698 165.354 888.449 164.964 888.308 164.466C888.167 163.968 888.096 163.354 888.096 162.623C888.096 160.368 888.883 159.24 890.456 159.24C891.058 159.24 891.531 159.403 891.875 159.729C892.219 160.054 892.422 160.466 892.483 160.964H891.709ZM890.456 162.337C890.191 162.337 889.943 162.392 889.709 162.503C889.476 162.607 889.285 162.77 889.138 162.991C888.996 163.206 888.926 163.471 888.926 163.784C888.926 164.251 889.061 164.632 889.331 164.927C889.602 165.216 889.989 165.36 890.493 165.36C890.923 165.36 891.264 165.228 891.516 164.964C891.774 164.693 891.903 164.331 891.903 163.876C891.903 163.397 891.78 163.022 891.534 162.752C891.288 162.475 890.929 162.337 890.456 162.337ZM894.251 166.097C894.091 166.097 893.956 166.042 893.845 165.931C893.735 165.821 893.679 165.686 893.679 165.526C893.679 165.366 893.735 165.231 893.845 165.12C893.956 165.01 894.091 164.954 894.251 164.954C894.404 164.954 894.533 165.01 894.638 165.12C894.749 165.231 894.804 165.366 894.804 165.526C894.804 165.686 894.749 165.821 894.638 165.931C894.533 166.042 894.404 166.097 894.251 166.097ZM900.029 160.106H896.794V162.208C896.936 162.011 897.145 161.851 897.421 161.729C897.698 161.6 897.996 161.535 898.315 161.535C898.825 161.535 899.24 161.643 899.559 161.858C899.879 162.067 900.106 162.34 900.241 162.678C900.383 163.01 900.453 163.363 900.453 163.738C900.453 164.18 900.37 164.577 900.204 164.927C900.039 165.277 899.784 165.554 899.439 165.756C899.102 165.959 898.681 166.06 898.177 166.06C897.532 166.06 897.009 165.895 896.61 165.563C896.211 165.231 895.968 164.789 895.882 164.236H896.702C896.782 164.586 896.951 164.859 897.209 165.056C897.467 165.252 897.793 165.351 898.186 165.351C898.671 165.351 899.037 165.206 899.283 164.918C899.529 164.623 899.651 164.236 899.651 163.756C899.651 163.277 899.529 162.908 899.283 162.65C899.037 162.386 898.674 162.254 898.195 162.254C897.87 162.254 897.584 162.334 897.338 162.494C897.098 162.647 896.923 162.859 896.813 163.13H896.02V159.369H900.029V160.106ZM901.467 165.369C902.247 164.742 902.858 164.229 903.301 163.83C903.743 163.424 904.115 163.004 904.416 162.567C904.723 162.125 904.877 161.692 904.877 161.268C904.877 160.868 904.778 160.555 904.582 160.328C904.391 160.094 904.081 159.977 903.651 159.977C903.233 159.977 902.907 160.11 902.674 160.374C902.447 160.632 902.324 160.979 902.305 161.415H901.494C901.519 160.727 901.728 160.196 902.121 159.821C902.514 159.446 903.021 159.259 903.642 159.259C904.275 159.259 904.775 159.434 905.144 159.784C905.519 160.134 905.706 160.616 905.706 161.231C905.706 161.741 905.553 162.239 905.245 162.724C904.944 163.203 904.6 163.627 904.213 163.996C903.826 164.358 903.331 164.782 902.729 165.268H905.9V165.968H901.467V165.369Z" fill="#1FA971"/>
<line x1="531.497" y1="192.581" x2="906.312" y2="192.581" stroke="#D0D2E0" stroke-width="0.512043"/>
<circle cx="541.226" cy="212.294" r="10.2409" fill="#C5C9FD"/>
<rect x="559.66" y="203.077" width="49.1561" height="9.21677" rx="4.09634" fill="#9095AD"/>
<rect x="559.66" y="217.414" width="98.3122" height="5.12043" rx="2.56021" fill="#BFC2D4"/>
<path d="M875.095 209.111H873.132V211.102H872.349V209.111H870.395V208.402H872.349V206.402H873.132V208.402H875.095V209.111ZM880.742 210.365C880.742 210.66 880.668 210.942 880.52 211.213C880.373 211.477 880.155 211.698 879.866 211.876C879.583 212.055 879.242 212.156 878.843 212.181V212.927H878.345V212.181C877.786 212.131 877.331 211.953 876.981 211.646C876.631 211.333 876.453 210.936 876.447 210.457H877.341C877.365 210.715 877.46 210.939 877.626 211.13C877.798 211.32 878.038 211.44 878.345 211.489V209.185C877.934 209.081 877.602 208.973 877.35 208.863C877.098 208.752 876.883 208.58 876.705 208.346C876.526 208.113 876.437 207.8 876.437 207.406C876.437 206.909 876.609 206.497 876.954 206.171C877.304 205.846 877.768 205.664 878.345 205.627V204.862H878.843V205.627C879.365 205.67 879.786 205.839 880.106 206.134C880.425 206.423 880.61 206.801 880.659 207.268H879.765C879.734 207.053 879.639 206.859 879.479 206.687C879.319 206.509 879.107 206.392 878.843 206.337V208.586C879.249 208.69 879.577 208.798 879.829 208.909C880.087 209.013 880.302 209.182 880.474 209.416C880.653 209.649 880.742 209.965 880.742 210.365ZM877.295 207.36C877.295 207.661 877.384 207.892 877.562 208.051C877.74 208.211 878.001 208.343 878.345 208.448V206.319C878.026 206.349 877.771 206.454 877.58 206.632C877.39 206.804 877.295 207.047 877.295 207.36ZM878.843 211.499C879.175 211.462 879.433 211.342 879.617 211.139C879.808 210.936 879.903 210.694 879.903 210.411C879.903 210.11 879.811 209.879 879.626 209.72C879.442 209.554 879.181 209.422 878.843 209.323V211.499ZM883.268 210.337C883.329 210.687 883.47 210.958 883.692 211.148C883.919 211.339 884.223 211.434 884.604 211.434C885.114 211.434 885.489 211.234 885.729 210.835C885.974 210.436 886.091 209.763 886.079 208.816C885.95 209.093 885.735 209.311 885.434 209.471C885.133 209.624 884.798 209.701 884.429 209.701C884.017 209.701 883.649 209.618 883.323 209.452C883.003 209.28 882.752 209.031 882.567 208.706C882.383 208.38 882.291 207.987 882.291 207.526C882.291 206.869 882.481 206.34 882.862 205.941C883.243 205.535 883.784 205.332 884.484 205.332C885.345 205.332 885.947 205.612 886.291 206.171C886.641 206.73 886.816 207.563 886.816 208.669C886.816 209.443 886.745 210.082 886.604 210.586C886.469 211.09 886.235 211.474 885.904 211.738C885.578 212.002 885.129 212.134 884.558 212.134C883.931 212.134 883.443 211.965 883.093 211.628C882.742 211.29 882.543 210.859 882.493 210.337H883.268ZM884.567 208.992C884.979 208.992 885.317 208.866 885.581 208.614C885.845 208.356 885.977 208.008 885.977 207.572C885.977 207.111 885.848 206.74 885.59 206.457C885.332 206.174 884.97 206.033 884.503 206.033C884.073 206.033 883.729 206.168 883.47 206.438C883.219 206.709 883.093 207.065 883.093 207.508C883.093 207.956 883.219 208.316 883.47 208.586C883.722 208.856 884.088 208.992 884.567 208.992ZM891.709 207.047C891.574 206.365 891.153 206.024 890.446 206.024C889.9 206.024 889.491 206.236 889.221 206.66C888.95 207.078 888.818 207.769 888.824 208.733C888.966 208.414 889.199 208.165 889.525 207.987C889.857 207.803 890.225 207.71 890.631 207.71C891.264 207.71 891.768 207.907 892.142 208.3C892.523 208.694 892.714 209.237 892.714 209.932C892.714 210.349 892.631 210.724 892.465 211.056C892.305 211.388 892.059 211.652 891.728 211.849C891.402 212.045 891.006 212.144 890.539 212.144C889.906 212.144 889.411 212.002 889.055 211.72C888.698 211.437 888.449 211.047 888.308 210.549C888.167 210.051 888.096 209.437 888.096 208.706C888.096 206.451 888.883 205.323 890.456 205.323C891.058 205.323 891.531 205.486 891.875 205.812C892.219 206.137 892.422 206.549 892.483 207.047H891.709ZM890.456 208.42C890.191 208.42 889.943 208.475 889.709 208.586C889.476 208.69 889.285 208.853 889.138 209.074C888.996 209.29 888.926 209.554 888.926 209.867C888.926 210.334 889.061 210.715 889.331 211.01C889.602 211.299 889.989 211.443 890.493 211.443C890.923 211.443 891.264 211.311 891.516 211.047C891.774 210.777 891.903 210.414 891.903 209.959C891.903 209.48 891.78 209.105 891.534 208.835C891.288 208.558 890.929 208.42 890.456 208.42ZM894.251 212.181C894.091 212.181 893.956 212.125 893.845 212.015C893.735 211.904 893.679 211.769 893.679 211.609C893.679 211.449 893.735 211.314 893.845 211.204C893.956 211.093 894.091 211.038 894.251 211.038C894.404 211.038 894.533 211.093 894.638 211.204C894.749 211.314 894.804 211.449 894.804 211.609C894.804 211.769 894.749 211.904 894.638 212.015C894.533 212.125 894.404 212.181 894.251 212.181ZM900.029 206.19H896.794V208.291C896.936 208.094 897.145 207.935 897.421 207.812C897.698 207.683 897.996 207.618 898.315 207.618C898.825 207.618 899.24 207.726 899.559 207.941C899.879 208.15 900.106 208.423 900.241 208.761C900.383 209.093 900.453 209.446 900.453 209.821C900.453 210.263 900.37 210.66 900.204 211.01C900.039 211.36 899.784 211.637 899.439 211.84C899.102 212.042 898.681 212.144 898.177 212.144C897.532 212.144 897.009 211.978 896.61 211.646C896.211 211.314 895.968 210.872 895.882 210.319H896.702C896.782 210.669 896.951 210.942 897.209 211.139C897.467 211.336 897.793 211.434 898.186 211.434C898.671 211.434 899.037 211.29 899.283 211.001C899.529 210.706 899.651 210.319 899.651 209.839C899.651 209.36 899.529 208.992 899.283 208.733C899.037 208.469 898.674 208.337 898.195 208.337C897.87 208.337 897.584 208.417 897.338 208.577C897.098 208.73 896.923 208.942 896.813 209.213H896.02V205.452H900.029V206.19ZM901.467 211.452C902.247 210.826 902.858 210.313 903.301 209.913C903.743 209.508 904.115 209.087 904.416 208.651C904.723 208.208 904.877 207.775 904.877 207.351C904.877 206.952 904.778 206.638 904.582 206.411C904.391 206.177 904.081 206.061 903.651 206.061C903.233 206.061 902.907 206.193 902.674 206.457C902.447 206.715 902.324 207.062 902.305 207.498H901.494C901.519 206.81 901.728 206.279 902.121 205.904C902.514 205.529 903.021 205.342 903.642 205.342C904.275 205.342 904.775 205.517 905.144 205.867C905.519 206.217 905.706 206.7 905.706 207.314C905.706 207.824 905.553 208.322 905.245 208.807C904.944 209.286 904.6 209.71 904.213 210.079C903.826 210.442 903.331 210.866 902.729 211.351H905.9V212.052H901.467V211.452Z" fill="#1FA971"/>
<line x1="531.497" y1="238.664" x2="906.312" y2="238.664" stroke="#D0D2E0" stroke-width="0.512043"/>
<circle cx="541.226" cy="258.377" r="10.2409" fill="#F1E08F"/>
<rect x="559.66" y="249.16" width="49.1561" height="9.21677" rx="4.09634" fill="#9095AD"/>
<rect x="559.66" y="263.497" width="98.3122" height="5.12043" rx="2.56021" fill="#BFC2D4"/>
<path d="M875.095 255.195H873.132V257.185H872.349V255.195H870.395V254.485H872.349V252.485H873.132V254.485H875.095V255.195ZM880.742 256.448C880.742 256.743 880.668 257.026 880.52 257.296C880.373 257.56 880.155 257.781 879.866 257.96C879.583 258.138 879.242 258.239 878.843 258.264V259.01H878.345V258.264C877.786 258.215 877.331 258.036 876.981 257.729C876.631 257.416 876.453 257.019 876.447 256.54H877.341C877.365 256.798 877.46 257.023 877.626 257.213C877.798 257.404 878.038 257.523 878.345 257.572V255.268C877.934 255.164 877.602 255.056 877.35 254.946C877.098 254.835 876.883 254.663 876.705 254.43C876.526 254.196 876.437 253.883 876.437 253.489C876.437 252.992 876.609 252.58 876.954 252.254C877.304 251.929 877.768 251.747 878.345 251.711V250.946H878.843V251.711C879.365 251.754 879.786 251.923 880.106 252.218C880.425 252.506 880.61 252.884 880.659 253.351H879.765C879.734 253.136 879.639 252.943 879.479 252.771C879.319 252.592 879.107 252.476 878.843 252.42V254.669C879.249 254.774 879.577 254.881 879.829 254.992C880.087 255.096 880.302 255.265 880.474 255.499C880.653 255.732 880.742 256.049 880.742 256.448ZM877.295 253.443C877.295 253.744 877.384 253.975 877.562 254.135C877.74 254.294 878.001 254.426 878.345 254.531V252.402C878.026 252.433 877.771 252.537 877.58 252.715C877.39 252.887 877.295 253.13 877.295 253.443ZM878.843 257.582C879.175 257.545 879.433 257.425 879.617 257.222C879.808 257.019 879.903 256.777 879.903 256.494C879.903 256.193 879.811 255.963 879.626 255.803C879.442 255.637 879.181 255.505 878.843 255.407V257.582ZM883.268 256.42C883.329 256.771 883.47 257.041 883.692 257.231C883.919 257.422 884.223 257.517 884.604 257.517C885.114 257.517 885.489 257.317 885.729 256.918C885.974 256.519 886.091 255.846 886.079 254.9C885.95 255.176 885.735 255.394 885.434 255.554C885.133 255.708 884.798 255.784 884.429 255.784C884.017 255.784 883.649 255.701 883.323 255.536C883.003 255.364 882.752 255.115 882.567 254.789C882.383 254.463 882.291 254.07 882.291 253.609C882.291 252.952 882.481 252.423 882.862 252.024C883.243 251.618 883.784 251.416 884.484 251.416C885.345 251.416 885.947 251.695 886.291 252.254C886.641 252.814 886.816 253.646 886.816 254.752C886.816 255.526 886.745 256.165 886.604 256.669C886.469 257.173 886.235 257.557 885.904 257.821C885.578 258.086 885.129 258.218 884.558 258.218C883.931 258.218 883.443 258.049 883.093 257.711C882.742 257.373 882.543 256.943 882.493 256.42H883.268ZM884.567 255.075C884.979 255.075 885.317 254.949 885.581 254.697C885.845 254.439 885.977 254.092 885.977 253.655C885.977 253.195 885.848 252.823 885.59 252.54C885.332 252.257 884.97 252.116 884.503 252.116C884.073 252.116 883.729 252.251 883.47 252.522C883.219 252.792 883.093 253.148 883.093 253.591C883.093 254.039 883.219 254.399 883.47 254.669C883.722 254.94 884.088 255.075 884.567 255.075ZM891.709 253.13C891.574 252.448 891.153 252.107 890.446 252.107C889.9 252.107 889.491 252.319 889.221 252.743C888.95 253.161 888.818 253.852 888.824 254.817C888.966 254.497 889.199 254.248 889.525 254.07C889.857 253.886 890.225 253.794 890.631 253.794C891.264 253.794 891.768 253.99 892.142 254.383C892.523 254.777 892.714 255.321 892.714 256.015C892.714 256.433 892.631 256.807 892.465 257.139C892.305 257.471 892.059 257.735 891.728 257.932C891.402 258.129 891.006 258.227 890.539 258.227C889.906 258.227 889.411 258.086 889.055 257.803C888.698 257.52 888.449 257.13 888.308 256.632C888.167 256.135 888.096 255.52 888.096 254.789C888.096 252.534 888.883 251.406 890.456 251.406C891.058 251.406 891.531 251.569 891.875 251.895C892.219 252.221 892.422 252.632 892.483 253.13H891.709ZM890.456 254.503C890.191 254.503 889.943 254.559 889.709 254.669C889.476 254.774 889.285 254.936 889.138 255.158C888.996 255.373 888.926 255.637 888.926 255.95C888.926 256.417 889.061 256.798 889.331 257.093C889.602 257.382 889.989 257.526 890.493 257.526C890.923 257.526 891.264 257.394 891.516 257.13C891.774 256.86 891.903 256.497 891.903 256.042C891.903 255.563 891.78 255.188 891.534 254.918C891.288 254.642 890.929 254.503 890.456 254.503ZM894.251 258.264C894.091 258.264 893.956 258.208 893.845 258.098C893.735 257.987 893.679 257.852 893.679 257.692C893.679 257.533 893.735 257.397 893.845 257.287C893.956 257.176 894.091 257.121 894.251 257.121C894.404 257.121 894.533 257.176 894.638 257.287C894.749 257.397 894.804 257.533 894.804 257.692C894.804 257.852 894.749 257.987 894.638 258.098C894.533 258.208 894.404 258.264 894.251 258.264ZM900.029 252.273H896.794V254.374C896.936 254.178 897.145 254.018 897.421 253.895C897.698 253.766 897.996 253.701 898.315 253.701C898.825 253.701 899.24 253.809 899.559 254.024C899.879 254.233 900.106 254.506 900.241 254.844C900.383 255.176 900.453 255.529 900.453 255.904C900.453 256.347 900.37 256.743 900.204 257.093C900.039 257.443 899.784 257.72 899.439 257.923C899.102 258.125 898.681 258.227 898.177 258.227C897.532 258.227 897.009 258.061 896.61 257.729C896.211 257.397 895.968 256.955 895.882 256.402H896.702C896.782 256.752 896.951 257.026 897.209 257.222C897.467 257.419 897.793 257.517 898.186 257.517C898.671 257.517 899.037 257.373 899.283 257.084C899.529 256.789 899.651 256.402 899.651 255.923C899.651 255.443 899.529 255.075 899.283 254.817C899.037 254.552 898.674 254.42 898.195 254.42C897.87 254.42 897.584 254.5 897.338 254.66C897.098 254.814 896.923 255.026 896.813 255.296H896.02V251.535H900.029V252.273ZM901.467 257.536C902.247 256.909 902.858 256.396 903.301 255.996C903.743 255.591 904.115 255.17 904.416 254.734C904.723 254.291 904.877 253.858 904.877 253.434C904.877 253.035 904.778 252.721 904.582 252.494C904.391 252.261 904.081 252.144 903.651 252.144C903.233 252.144 902.907 252.276 902.674 252.54C902.447 252.798 902.324 253.145 902.305 253.582H901.494C901.519 252.893 901.728 252.362 902.121 251.987C902.514 251.612 903.021 251.425 903.642 251.425C904.275 251.425 904.775 251.6 905.144 251.95C905.519 252.3 905.706 252.783 905.706 253.397C905.706 253.907 905.553 254.405 905.245 254.89C904.944 255.37 904.6 255.794 904.213 256.162C903.826 256.525 903.331 256.949 902.729 257.434H905.9V258.135H901.467V257.536Z" fill="#1FA971"/>
<path d="M808.098 164.524H806.495V166.165H805.002V164.524H803.398V163.114H805.002V161.465H806.495V163.114H808.098V164.524ZM814.107 165.16C814.107 165.498 814.018 165.812 813.84 166.101C813.668 166.383 813.41 166.617 813.066 166.801C812.728 166.979 812.325 167.078 811.858 167.096V167.843H811.268V167.087C810.617 167.031 810.092 166.838 809.692 166.506C809.293 166.168 809.081 165.71 809.056 165.133H810.734C810.771 165.501 810.949 165.738 811.268 165.842V164.386C810.789 164.263 810.405 164.144 810.116 164.027C809.834 163.91 809.585 163.723 809.37 163.465C809.155 163.206 809.047 162.853 809.047 162.405C809.047 161.845 809.253 161.397 809.665 161.059C810.082 160.721 810.617 160.531 811.268 160.488V159.741H811.858V160.488C812.503 160.537 813.013 160.724 813.388 161.05C813.763 161.375 813.972 161.827 814.015 162.405H812.328C812.291 162.073 812.135 161.858 811.858 161.759V163.188C812.368 163.329 812.761 163.455 813.038 163.566C813.314 163.677 813.56 163.861 813.775 164.119C813.996 164.371 814.107 164.718 814.107 165.16ZM810.715 162.331C810.715 162.484 810.761 162.614 810.854 162.718C810.952 162.822 811.09 162.915 811.268 162.994V161.713C811.096 161.744 810.961 161.812 810.863 161.916C810.764 162.014 810.715 162.153 810.715 162.331ZM811.858 165.87C812.043 165.839 812.187 165.766 812.291 165.649C812.402 165.532 812.457 165.388 812.457 165.216C812.457 165.056 812.405 164.927 812.301 164.829C812.202 164.724 812.055 164.635 811.858 164.561V165.87ZM816.819 165.068C816.911 165.554 817.194 165.796 817.667 165.796C817.992 165.796 818.223 165.652 818.358 165.363C818.493 165.074 818.561 164.604 818.561 163.953C818.425 164.144 818.241 164.291 818.008 164.395C817.774 164.5 817.513 164.552 817.224 164.552C816.831 164.552 816.481 164.472 816.174 164.312C815.866 164.147 815.624 163.904 815.445 163.584C815.273 163.259 815.187 162.865 815.187 162.405C815.187 161.95 815.279 161.554 815.464 161.216C815.654 160.878 815.922 160.617 816.266 160.432C816.616 160.248 817.028 160.156 817.501 160.156C818.41 160.156 819.046 160.438 819.409 161.004C819.771 161.569 819.952 162.402 819.952 163.501C819.952 164.3 819.879 164.961 819.731 165.483C819.59 165.999 819.347 166.392 819.003 166.663C818.665 166.933 818.201 167.068 817.611 167.068C817.144 167.068 816.745 166.976 816.413 166.792C816.087 166.607 815.836 166.365 815.657 166.064C815.485 165.763 815.387 165.431 815.362 165.068H816.819ZM817.584 163.308C817.842 163.308 818.048 163.231 818.201 163.077C818.355 162.918 818.432 162.703 818.432 162.432C818.432 162.137 818.352 161.91 818.192 161.75C818.032 161.59 817.817 161.511 817.547 161.511C817.276 161.511 817.061 161.594 816.902 161.759C816.748 161.919 816.671 162.14 816.671 162.423C816.671 162.687 816.748 162.902 816.902 163.068C817.061 163.228 817.289 163.308 817.584 163.308ZM824.121 162.128C824.071 161.901 823.985 161.732 823.862 161.621C823.74 161.504 823.564 161.446 823.337 161.446C822.987 161.446 822.735 161.6 822.581 161.907C822.428 162.208 822.348 162.687 822.342 163.345C822.477 163.13 822.67 162.961 822.922 162.838C823.18 162.715 823.463 162.653 823.77 162.653C824.372 162.653 824.855 162.844 825.217 163.225C825.586 163.606 825.77 164.137 825.77 164.819C825.77 165.268 825.678 165.661 825.494 165.999C825.316 166.337 825.051 166.601 824.701 166.792C824.357 166.982 823.948 167.078 823.475 167.078C822.529 167.078 821.872 166.783 821.503 166.193C821.134 165.597 820.95 164.743 820.95 163.63C820.95 162.463 821.144 161.597 821.531 161.031C821.924 160.46 822.551 160.174 823.411 160.174C823.872 160.174 824.259 160.266 824.572 160.451C824.892 160.629 825.131 160.865 825.291 161.16C825.457 161.455 825.555 161.778 825.586 162.128H824.121ZM823.392 163.898C823.128 163.898 822.907 163.978 822.729 164.137C822.557 164.291 822.471 164.512 822.471 164.801C822.471 165.096 822.551 165.326 822.71 165.492C822.876 165.658 823.11 165.741 823.411 165.741C823.681 165.741 823.893 165.661 824.047 165.501C824.207 165.336 824.286 165.111 824.286 164.829C824.286 164.54 824.21 164.312 824.056 164.147C823.902 163.981 823.681 163.898 823.392 163.898ZM827.556 167.114C827.279 167.114 827.052 167.035 826.874 166.875C826.702 166.709 826.616 166.506 826.616 166.266C826.616 166.021 826.702 165.815 826.874 165.649C827.052 165.483 827.279 165.4 827.556 165.4C827.826 165.4 828.047 165.483 828.219 165.649C828.398 165.815 828.487 166.021 828.487 166.266C828.487 166.506 828.398 166.709 828.219 166.875C828.047 167.035 827.826 167.114 827.556 167.114ZM834 161.686H831.125V162.958C831.248 162.822 831.42 162.712 831.641 162.626C831.862 162.54 832.102 162.497 832.36 162.497C832.821 162.497 833.202 162.601 833.503 162.81C833.81 163.019 834.034 163.289 834.176 163.621C834.317 163.953 834.387 164.312 834.387 164.7C834.387 165.418 834.185 165.99 833.779 166.414C833.374 166.832 832.802 167.041 832.065 167.041C831.573 167.041 831.146 166.958 830.784 166.792C830.421 166.62 830.142 166.383 829.945 166.082C829.748 165.781 829.641 165.434 829.622 165.041H831.162C831.198 165.231 831.288 165.391 831.429 165.52C831.57 165.643 831.764 165.704 832.01 165.704C832.298 165.704 832.513 165.612 832.655 165.428C832.796 165.243 832.867 164.998 832.867 164.69C832.867 164.389 832.793 164.159 832.646 163.999C832.498 163.839 832.283 163.759 832 163.759C831.791 163.759 831.619 163.812 831.484 163.916C831.349 164.014 831.26 164.147 831.217 164.312H829.696V160.303H834V161.686ZM835.202 165.778C835.411 165.612 835.506 165.535 835.488 165.548C836.09 165.05 836.563 164.641 836.907 164.322C837.258 164.002 837.552 163.667 837.792 163.317C838.032 162.967 838.152 162.626 838.152 162.294C838.152 162.042 838.093 161.845 837.976 161.704C837.86 161.563 837.685 161.492 837.451 161.492C837.218 161.492 837.033 161.581 836.898 161.759C836.769 161.931 836.705 162.177 836.705 162.497H835.184C835.196 161.975 835.307 161.538 835.516 161.188C835.731 160.838 836.01 160.58 836.354 160.414C836.705 160.248 837.092 160.165 837.516 160.165C838.247 160.165 838.797 160.352 839.165 160.727C839.54 161.102 839.728 161.59 839.728 162.193C839.728 162.85 839.503 163.461 839.055 164.027C838.606 164.586 838.035 165.133 837.34 165.667H839.829V166.948H835.202V165.778Z" fill="#1FA971"/>
<path d="M808.098 210.61H806.495V212.251H805.002V210.61H803.398V209.2H805.002V207.55H806.495V209.2H808.098V210.61ZM814.107 211.246C814.107 211.584 814.018 211.897 813.84 212.186C813.668 212.469 813.41 212.702 813.066 212.886C812.728 213.065 812.325 213.163 811.858 213.181V213.928H811.268V213.172C810.617 213.117 810.092 212.923 809.692 212.592C809.293 212.254 809.081 211.796 809.056 211.218H810.734C810.771 211.587 810.949 211.823 811.268 211.928V210.472C810.789 210.349 810.405 210.229 810.116 210.112C809.834 209.995 809.585 209.808 809.37 209.55C809.155 209.292 809.047 208.939 809.047 208.49C809.047 207.931 809.253 207.482 809.665 207.144C810.082 206.806 810.617 206.616 811.268 206.573V205.826H811.858V206.573C812.503 206.622 813.013 206.81 813.388 207.135C813.763 207.461 813.972 207.912 814.015 208.49H812.328C812.291 208.158 812.135 207.943 811.858 207.845V209.273C812.368 209.415 812.761 209.541 813.038 209.651C813.314 209.762 813.56 209.946 813.775 210.204C813.996 210.456 814.107 210.803 814.107 211.246ZM810.715 208.416C810.715 208.57 810.761 208.699 810.854 208.803C810.952 208.908 811.09 209 811.268 209.08V207.799C811.096 207.83 810.961 207.897 810.863 208.002C810.764 208.1 810.715 208.238 810.715 208.416ZM811.858 211.956C812.043 211.925 812.187 211.851 812.291 211.734C812.402 211.618 812.457 211.473 812.457 211.301C812.457 211.141 812.405 211.012 812.301 210.914C812.202 210.81 812.055 210.721 811.858 210.647V211.956ZM816.819 211.154C816.911 211.639 817.194 211.882 817.667 211.882C817.992 211.882 818.223 211.737 818.358 211.449C818.493 211.16 818.561 210.69 818.561 210.038C818.425 210.229 818.241 210.376 818.008 210.481C817.774 210.585 817.513 210.638 817.224 210.638C816.831 210.638 816.481 210.558 816.174 210.398C815.866 210.232 815.624 209.989 815.445 209.67C815.273 209.344 815.187 208.951 815.187 208.49C815.187 208.035 815.279 207.639 815.464 207.301C815.654 206.963 815.922 206.702 816.266 206.518C816.616 206.333 817.028 206.241 817.501 206.241C818.41 206.241 819.046 206.524 819.409 207.089C819.771 207.654 819.952 208.487 819.952 209.587C819.952 210.386 819.879 211.046 819.731 211.568C819.59 212.085 819.347 212.478 819.003 212.748C818.665 213.019 818.201 213.154 817.611 213.154C817.144 213.154 816.745 213.062 816.413 212.877C816.087 212.693 815.836 212.45 815.657 212.149C815.485 211.848 815.387 211.516 815.362 211.154H816.819ZM817.584 209.393C817.842 209.393 818.048 209.317 818.201 209.163C818.355 209.003 818.432 208.788 818.432 208.518C818.432 208.223 818.352 207.995 818.192 207.836C818.032 207.676 817.817 207.596 817.547 207.596C817.276 207.596 817.061 207.679 816.902 207.845C816.748 208.005 816.671 208.226 816.671 208.508C816.671 208.773 816.748 208.988 816.902 209.154C817.061 209.313 817.289 209.393 817.584 209.393ZM824.121 208.214C824.071 207.986 823.985 207.817 823.862 207.707C823.74 207.59 823.564 207.532 823.337 207.532C822.987 207.532 822.735 207.685 822.581 207.992C822.428 208.293 822.348 208.773 822.342 209.43C822.477 209.215 822.67 209.046 822.922 208.923C823.18 208.8 823.463 208.739 823.77 208.739C824.372 208.739 824.855 208.929 825.217 209.31C825.586 209.691 825.77 210.223 825.77 210.905C825.77 211.353 825.678 211.747 825.494 212.085C825.316 212.423 825.051 212.687 824.701 212.877C824.357 213.068 823.948 213.163 823.475 213.163C822.529 213.163 821.872 212.868 821.503 212.278C821.134 211.682 820.95 210.828 820.95 209.716C820.95 208.548 821.144 207.682 821.531 207.117C821.924 206.545 822.551 206.26 823.411 206.26C823.872 206.26 824.259 206.352 824.572 206.536C824.892 206.714 825.131 206.951 825.291 207.246C825.457 207.541 825.555 207.863 825.586 208.214H824.121ZM823.392 209.983C823.128 209.983 822.907 210.063 822.729 210.223C822.557 210.376 822.471 210.598 822.471 210.886C822.471 211.181 822.551 211.412 822.71 211.578C822.876 211.744 823.11 211.827 823.411 211.827C823.681 211.827 823.893 211.747 824.047 211.587C824.207 211.421 824.286 211.197 824.286 210.914C824.286 210.625 824.21 210.398 824.056 210.232C823.902 210.066 823.681 209.983 823.392 209.983ZM827.556 213.2C827.279 213.2 827.052 213.12 826.874 212.96C826.702 212.794 826.616 212.592 826.616 212.352C826.616 212.106 826.702 211.9 826.874 211.734C827.052 211.568 827.279 211.486 827.556 211.486C827.826 211.486 828.047 211.568 828.219 211.734C828.398 211.9 828.487 212.106 828.487 212.352C828.487 212.592 828.398 212.794 828.219 212.96C828.047 213.12 827.826 213.2 827.556 213.2ZM834 207.771H831.125V209.043C831.248 208.908 831.42 208.797 831.641 208.711C831.862 208.625 832.102 208.582 832.36 208.582C832.821 208.582 833.202 208.687 833.503 208.896C833.81 209.105 834.034 209.375 834.176 209.707C834.317 210.038 834.387 210.398 834.387 210.785C834.387 211.504 834.185 212.075 833.779 212.499C833.374 212.917 832.802 213.126 832.065 213.126C831.573 213.126 831.146 213.043 830.784 212.877C830.421 212.705 830.142 212.469 829.945 212.168C829.748 211.866 829.641 211.519 829.622 211.126H831.162C831.198 211.317 831.288 211.476 831.429 211.605C831.57 211.728 831.764 211.79 832.01 211.79C832.298 211.79 832.513 211.697 832.655 211.513C832.796 211.329 832.867 211.083 832.867 210.776C832.867 210.475 832.793 210.244 832.646 210.085C832.498 209.925 832.283 209.845 832 209.845C831.791 209.845 831.619 209.897 831.484 210.002C831.349 210.1 831.26 210.232 831.217 210.398H829.696V206.389H834V207.771ZM835.202 211.863C835.411 211.697 835.506 211.621 835.488 211.633C836.09 211.135 836.563 210.727 836.907 210.407C837.258 210.088 837.552 209.753 837.792 209.403C838.032 209.052 838.152 208.711 838.152 208.379C838.152 208.128 838.093 207.931 837.976 207.79C837.86 207.648 837.685 207.578 837.451 207.578C837.218 207.578 837.033 207.667 836.898 207.845C836.769 208.017 836.705 208.263 836.705 208.582H835.184C835.196 208.06 835.307 207.624 835.516 207.273C835.731 206.923 836.01 206.665 836.354 206.499C836.705 206.333 837.092 206.25 837.516 206.25C838.247 206.25 838.797 206.438 839.165 206.813C839.54 207.187 839.728 207.676 839.728 208.278C839.728 208.936 839.503 209.547 839.055 210.112C838.606 210.671 838.035 211.218 837.34 211.753H839.829V213.034H835.202V211.863Z" fill="#1FA971"/>
<path d="M808.098 256.692H806.495V258.333H805.002V256.692H803.398V255.282H805.002V253.632H806.495V255.282H808.098V256.692ZM814.107 257.328C814.107 257.666 814.018 257.979 813.84 258.268C813.668 258.551 813.41 258.784 813.066 258.969C812.728 259.147 812.325 259.245 811.858 259.264V260.01H811.268V259.254C810.617 259.199 810.092 259.006 809.692 258.674C809.293 258.336 809.081 257.878 809.056 257.301H810.734C810.771 257.669 810.949 257.906 811.268 258.01V256.554C810.789 256.431 810.405 256.311 810.116 256.194C809.834 256.078 809.585 255.89 809.37 255.632C809.155 255.374 809.047 255.021 809.047 254.572C809.047 254.013 809.253 253.565 809.665 253.227C810.082 252.889 810.617 252.698 811.268 252.655V251.909H811.858V252.655C812.503 252.704 813.013 252.892 813.388 253.217C813.763 253.543 813.972 253.995 814.015 254.572H812.328C812.291 254.241 812.135 254.025 811.858 253.927V255.356C812.368 255.497 812.761 255.623 813.038 255.734C813.314 255.844 813.56 256.029 813.775 256.287C813.996 256.539 814.107 256.886 814.107 257.328ZM810.715 254.499C810.715 254.652 810.761 254.781 810.854 254.886C810.952 254.99 811.09 255.082 811.268 255.162V253.881C811.096 253.912 810.961 253.979 810.863 254.084C810.764 254.182 810.715 254.32 810.715 254.499ZM811.858 258.038C812.043 258.007 812.187 257.933 812.291 257.817C812.402 257.7 812.457 257.556 812.457 257.383C812.457 257.224 812.405 257.095 812.301 256.996C812.202 256.892 812.055 256.803 811.858 256.729V258.038ZM816.819 257.236C816.911 257.721 817.194 257.964 817.667 257.964C817.992 257.964 818.223 257.82 818.358 257.531C818.493 257.242 818.561 256.772 818.561 256.121C818.425 256.311 818.241 256.459 818.008 256.563C817.774 256.668 817.513 256.72 817.224 256.72C816.831 256.72 816.481 256.64 816.174 256.48C815.866 256.314 815.624 256.072 815.445 255.752C815.273 255.426 815.187 255.033 815.187 254.572C815.187 254.118 815.279 253.721 815.464 253.383C815.654 253.045 815.922 252.784 816.266 252.6C816.616 252.416 817.028 252.323 817.501 252.323C818.41 252.323 819.046 252.606 819.409 253.171C819.771 253.737 819.952 254.569 819.952 255.669C819.952 256.468 819.879 257.128 819.731 257.651C819.59 258.167 819.347 258.56 819.003 258.83C818.665 259.101 818.201 259.236 817.611 259.236C817.144 259.236 816.745 259.144 816.413 258.96C816.087 258.775 815.836 258.532 815.657 258.231C815.485 257.93 815.387 257.599 815.362 257.236H816.819ZM817.584 255.476C817.842 255.476 818.048 255.399 818.201 255.245C818.355 255.085 818.432 254.87 818.432 254.6C818.432 254.305 818.352 254.078 818.192 253.918C818.032 253.758 817.817 253.678 817.547 253.678C817.276 253.678 817.061 253.761 816.902 253.927C816.748 254.087 816.671 254.308 816.671 254.591C816.671 254.855 816.748 255.07 816.902 255.236C817.061 255.396 817.289 255.476 817.584 255.476ZM824.121 254.296C824.071 254.068 823.985 253.9 823.862 253.789C823.74 253.672 823.564 253.614 823.337 253.614C822.987 253.614 822.735 253.767 822.581 254.075C822.428 254.376 822.348 254.855 822.342 255.512C822.477 255.297 822.67 255.128 822.922 255.006C823.18 254.883 823.463 254.821 823.77 254.821C824.372 254.821 824.855 255.012 825.217 255.393C825.586 255.774 825.77 256.305 825.77 256.987C825.77 257.436 825.678 257.829 825.494 258.167C825.316 258.505 825.051 258.769 824.701 258.96C824.357 259.15 823.948 259.245 823.475 259.245C822.529 259.245 821.872 258.95 821.503 258.36C821.134 257.764 820.95 256.91 820.95 255.798C820.95 254.631 821.144 253.764 821.531 253.199C821.924 252.628 822.551 252.342 823.411 252.342C823.872 252.342 824.259 252.434 824.572 252.618C824.892 252.797 825.131 253.033 825.291 253.328C825.457 253.623 825.555 253.946 825.586 254.296H824.121ZM823.392 256.065C823.128 256.065 822.907 256.145 822.729 256.305C822.557 256.459 822.471 256.68 822.471 256.969C822.471 257.264 822.551 257.494 822.71 257.66C822.876 257.826 823.11 257.909 823.411 257.909C823.681 257.909 823.893 257.829 824.047 257.669C824.207 257.503 824.286 257.279 824.286 256.996C824.286 256.708 824.21 256.48 824.056 256.314C823.902 256.148 823.681 256.065 823.392 256.065ZM827.556 259.282C827.279 259.282 827.052 259.202 826.874 259.042C826.702 258.877 826.616 258.674 826.616 258.434C826.616 258.188 826.702 257.983 826.874 257.817C827.052 257.651 827.279 257.568 827.556 257.568C827.826 257.568 828.047 257.651 828.219 257.817C828.398 257.983 828.487 258.188 828.487 258.434C828.487 258.674 828.398 258.877 828.219 259.042C828.047 259.202 827.826 259.282 827.556 259.282ZM834 253.853H831.125V255.125C831.248 254.99 831.42 254.88 831.641 254.794C831.862 254.708 832.102 254.665 832.36 254.665C832.821 254.665 833.202 254.769 833.503 254.978C833.81 255.187 834.034 255.457 834.176 255.789C834.317 256.121 834.387 256.48 834.387 256.867C834.387 257.586 834.185 258.158 833.779 258.582C833.374 258.999 832.802 259.208 832.065 259.208C831.573 259.208 831.146 259.125 830.784 258.96C830.421 258.787 830.142 258.551 829.945 258.25C829.748 257.949 829.641 257.602 829.622 257.208H831.162C831.198 257.399 831.288 257.559 831.429 257.688C831.57 257.81 831.764 257.872 832.01 257.872C832.298 257.872 832.513 257.78 832.655 257.595C832.796 257.411 832.867 257.165 832.867 256.858C832.867 256.557 832.793 256.327 832.646 256.167C832.498 256.007 832.283 255.927 832 255.927C831.791 255.927 831.619 255.979 831.484 256.084C831.349 256.182 831.26 256.314 831.217 256.48H829.696V252.471H834V253.853ZM835.202 257.946C835.411 257.78 835.506 257.703 835.488 257.715C836.09 257.218 836.563 256.809 836.907 256.489C837.258 256.17 837.552 255.835 837.792 255.485C838.032 255.135 838.152 254.794 838.152 254.462C838.152 254.21 838.093 254.013 837.976 253.872C837.86 253.731 837.685 253.66 837.451 253.66C837.218 253.66 837.033 253.749 836.898 253.927C836.769 254.099 836.705 254.345 836.705 254.665H835.184C835.196 254.142 835.307 253.706 835.516 253.356C835.731 253.005 836.01 252.747 836.354 252.582C836.705 252.416 837.092 252.333 837.516 252.333C838.247 252.333 838.797 252.52 839.165 252.895C839.54 253.27 839.728 253.758 839.728 254.36C839.728 255.018 839.503 255.629 839.055 256.194C838.606 256.754 838.035 257.301 837.34 257.835H839.829V259.116H835.202V257.946Z" fill="#1FA971"/>
</g>
<g clip-path="url(#clip6_2_9620)">
<rect width="177.386" height="429.75" transform="translate(208.4 10)" fill="#1B1E2E"/>
<g clip-path="url(#clip7_2_9620)">
<rect x="208.4" y="81.625" width="177.272" height="9.55" fill="url(#paint0_linear_2_9620)"/>
</g>
<path d="M219.143 68.4937V61.3312C219.143 61.0016 219.411 60.7344 219.74 60.7344H225.709C226.039 60.7344 226.306 61.0016 226.306 61.3312V68.4937C226.306 68.8234 226.039 69.0906 225.709 69.0906H219.74C219.411 69.0906 219.143 68.8234 219.143 68.4937Z" fill="#2E3247"/>
<path d="M220.934 64.9125H222.725M220.934 63.1219H224.515M220.934 66.7031H223.918M225.709 60.7344L219.74 60.7344C219.411 60.7344 219.143 61.0016 219.143 61.3312V68.4937C219.143 68.8234 219.411 69.0906 219.74 69.0906H225.709C226.039 69.0906 226.306 68.8234 226.306 68.4937V61.3312C226.306 61.0016 226.039 60.7344 225.709 60.7344Z" stroke="#5A5F7A" stroke-width="1.19375" stroke-linecap="round" stroke-linejoin="round"/>
<path d="M359.015 66.9125H359.781V61.8659H359.008L357.679 62.8102V63.5516L358.997 62.6423H359.015V66.9125ZM361.424 63.5341C361.68 63.5341 361.883 63.3313 361.883 63.0725C361.883 62.8172 361.68 62.6143 361.424 62.6143C361.166 62.6143 360.963 62.8172 360.963 63.0725C360.963 63.3313 361.166 63.5341 361.424 63.5341ZM361.424 66.1606C361.68 66.1606 361.883 65.9578 361.883 65.7025C361.883 65.4437 361.68 65.2443 361.424 65.2443C361.166 65.2443 360.963 65.4437 360.963 65.7025C360.963 65.9578 361.166 66.1606 361.424 66.1606ZM364.464 66.9965C365.667 66.9965 366.391 65.9927 366.391 64.391V64.384C366.391 62.7822 365.667 61.782 364.464 61.782C363.257 61.782 362.537 62.7822 362.537 64.384V64.391C362.537 65.9927 363.257 66.9965 364.464 66.9965ZM364.464 66.3425C363.743 66.3425 363.327 65.601 363.327 64.391V64.384C363.327 63.1739 363.743 62.4395 364.464 62.4395C365.18 62.4395 365.6 63.1739 365.6 64.384V64.391C365.6 65.601 365.18 66.3425 364.464 66.3425ZM368.853 66.9965C369.923 66.9965 370.682 66.3809 370.682 65.5171V65.5101C370.682 64.8037 370.185 64.356 369.444 64.2896V64.2721C370.059 64.1427 370.507 63.723 370.507 63.097V63.09C370.507 62.3136 369.849 61.782 368.846 61.782C367.859 61.782 367.188 62.338 367.111 63.1809L367.108 63.2159H367.842L367.845 63.1844C367.894 62.7158 368.286 62.422 368.846 62.422C369.416 62.422 369.744 62.7053 369.744 63.1914V63.1984C369.744 63.667 369.353 64.0063 368.776 64.0063H368.185V64.6148H368.797C369.472 64.6148 369.884 64.9331 369.884 65.5031V65.5101C369.884 65.9997 369.468 66.3425 368.853 66.3425C368.227 66.3425 367.803 66.0277 367.755 65.5801L367.751 65.5416H366.999L367.003 65.5871C367.073 66.4089 367.775 66.9965 368.853 66.9965Z" fill="#747994"/>
<rect x="352.87" y="57.8235" width="22.9531" height="14.1781" rx="7.08906" stroke="#2E3247" stroke-width="0.596875"/>
<line opacity="0.6" x1="217.95" y1="81.9234" x2="376.122" y2="81.9234" stroke="#2E3247" stroke-width="0.596875"/>
<g clip-path="url(#clip8_2_9620)">
<rect width="177" height="0.84691" transform="translate(208.4 48.2)" fill="#1B1E2E"/>
</g>
<path opacity="0.6" d="M217.95 48.4984L376.122 48.4984" stroke="#2E3247" stroke-width="0.596875"/>
<path opacity="0.6" d="M208.698 10.25L208.698 440" stroke="#2E3247" stroke-width="0.596875"/>
</g>
<rect width="38.2" height="430.129" transform="translate(170 10)" fill="#1B1E2E"/>
<rect x="177.461" y="55.6609" width="23.2781" height="23.2781" rx="2.08906" fill="#2E3247"/>
<rect x="177.461" y="55.6609" width="23.2781" height="23.2781" rx="2.08906" stroke="#2E3247" stroke-width="0.596875"/>
<path d="M183.728 68.4937H187.906V72.6718H184.325C183.995 72.6718 183.728 72.4046 183.728 72.075V68.4937Z" fill="#005F39"/>
<path d="M190.294 61.9281H193.875C194.205 61.9281 194.472 62.1953 194.472 62.525V66.1062H190.294V61.9281Z" fill="#005F39"/>
<path d="M187.906 64.3156H188.503V63.7187H187.906V64.3156ZM190.294 61.9281V61.3312H189.697V61.9281H190.294ZM194.472 66.1062V66.7031H195.069V66.1062H194.472ZM190.294 66.1062H189.697V66.7031H190.294V66.1062ZM192.084 68.4937H192.681V67.8969H192.084V68.4937ZM184.325 64.9125H187.906V63.7187H184.325V64.9125ZM187.309 64.3156V68.4937H188.503V64.3156H187.309ZM187.906 67.8969H183.728V69.0906H187.906V67.8969ZM184.325 68.4937V64.9125H183.131V68.4937H184.325ZM187.309 68.4937V72.6718H188.503V68.4937H187.309ZM187.906 72.075H184.325V73.2687H187.906V72.075ZM184.325 72.075V68.4937H183.131V72.075H184.325ZM190.294 62.525H193.875V61.3312H190.294V62.525ZM193.875 62.525V66.1062H195.069V62.525H193.875ZM194.472 65.5094H190.294V66.7031H194.472V65.5094ZM190.891 66.1062V61.9281H189.697V66.1062H190.891ZM187.906 69.0906H192.084V67.8969H187.906V69.0906ZM191.487 68.4937V72.075H192.681V68.4937H191.487ZM191.487 72.075H187.906V73.2687H191.487V72.075ZM191.487 72.075L191.487 72.075V73.2687C192.147 73.2687 192.681 72.7343 192.681 72.075H191.487ZM193.875 62.525L193.875 62.525H195.069C195.069 61.8657 194.534 61.3312 193.875 61.3312V62.525ZM184.325 72.075L184.325 72.075H183.131C183.131 72.7343 183.666 73.2687 184.325 73.2687V72.075ZM184.325 63.7187C183.666 63.7187 183.131 64.2532 183.131 64.9125H184.325L184.325 64.9125V63.7187Z" fill="#69D3A7"/>
<path d="M170 88.7875V88.7875C171.319 88.7875 172.387 89.8564 172.387 91.175V110.275C172.387 111.594 171.319 112.662 170 112.662V112.662V88.7875Z" fill="#69D3A7"/>
<path d="M194.472 97.1438C194.472 96.4845 193.937 95.95 193.278 95.95H184.922C184.263 95.95 183.728 96.4845 183.728 97.1438V98.3375H194.472V97.1438Z" fill="#005F39"/>
<path fill-rule="evenodd" clip-rule="evenodd" d="M194.472 97.1438C194.472 96.4845 193.937 95.95 193.278 95.95H184.922C184.263 95.95 183.728 96.4845 183.728 97.1438V98.3375H194.472V97.1438Z" fill="#005F39"/>
<path d="M183.728 98.3375V104.306C183.728 104.966 184.263 105.5 184.922 105.5H193.278C193.937 105.5 194.472 104.966 194.472 104.306V98.3375M183.728 98.3375V97.1438C183.728 96.4845 184.263 95.95 184.922 95.95H193.278C193.937 95.95 194.472 96.4845 194.472 97.1438V98.3375M183.728 98.3375H194.472M190.294 100.725L191.487 101.919L190.294 103.113M187.906 100.725L186.712 101.876L187.906 103.027" stroke="#69D3A7" stroke-width="1.19375" stroke-linecap="round" stroke-linejoin="round"/>
<path d="M183.728 135.941H186.116V138.328H183.728V135.941Z" fill="#2E3247"/>
<path d="M194.472 131.762C194.802 131.762 195.069 131.495 195.069 131.166C195.069 130.836 194.802 130.569 194.472 130.569V131.762ZM188.503 130.569C188.173 130.569 187.906 130.836 187.906 131.166C187.906 131.495 188.173 131.762 188.503 131.762V130.569ZM194.472 137.731C194.802 137.731 195.069 137.464 195.069 137.134C195.069 136.805 194.802 136.537 194.472 136.537V137.731ZM188.503 136.537C188.173 136.537 187.906 136.805 187.906 137.134C187.906 137.464 188.173 137.731 188.503 137.731V136.537ZM183.306 131.937C183.073 132.17 183.073 132.548 183.306 132.781C183.539 133.015 183.917 133.015 184.15 132.781L183.306 131.937ZM186.538 130.394C186.771 130.161 186.771 129.783 186.538 129.55C186.305 129.317 185.927 129.317 185.694 129.55L186.538 130.394ZM184.15 129.55C183.917 129.317 183.539 129.317 183.306 129.55C183.073 129.783 183.073 130.161 183.306 130.394L184.15 129.55ZM185.694 132.781C185.927 133.015 186.305 133.015 186.538 132.781C186.771 132.548 186.771 132.17 186.538 131.937L185.694 132.781ZM183.728 135.941V135.344C183.398 135.344 183.131 135.611 183.131 135.941H183.728ZM186.116 135.941H186.712C186.712 135.611 186.445 135.344 186.116 135.344V135.941ZM186.116 138.328V138.925C186.445 138.925 186.712 138.658 186.712 138.328H186.116ZM183.728 138.328H183.131C183.131 138.658 183.398 138.925 183.728 138.925V138.328ZM194.472 130.569H188.503V131.762H194.472V130.569ZM194.472 136.537H188.503V137.731H194.472V136.537ZM184.15 132.781L185.344 131.588L184.5 130.744L183.306 131.937L184.15 132.781ZM185.344 131.588L186.538 130.394L185.694 129.55L184.5 130.744L185.344 131.588ZM183.306 130.394L184.5 131.588L185.344 130.744L184.15 129.55L183.306 130.394ZM184.5 131.588L185.694 132.781L186.538 131.937L185.344 130.744L184.5 131.588ZM183.728 136.537H186.116V135.344H183.728V136.537ZM185.519 135.941V138.328H186.712V135.941H185.519ZM186.116 137.731H183.728V138.925H186.116V137.731ZM184.325 138.328V135.941H183.131V138.328H184.325Z" fill="#9095AD"/>
<path fill-rule="evenodd" clip-rule="evenodd" d="M187.783 162.502C187.783 162.337 187.917 162.203 188.082 162.203H189.872C190.037 162.203 190.171 162.337 190.171 162.502V163.347C190.171 163.479 190.258 163.595 190.382 163.639C190.862 163.81 191.302 164.067 191.682 164.391C191.783 164.476 191.926 164.494 192.041 164.428L192.774 164.004C192.917 163.922 193.099 163.971 193.182 164.114L194.077 165.664C194.159 165.807 194.111 165.99 193.968 166.072L193.235 166.495C193.121 166.561 193.064 166.694 193.088 166.824C193.132 167.068 193.155 167.319 193.155 167.575C193.155 167.831 193.132 168.082 193.088 168.326C193.064 168.456 193.121 168.589 193.235 168.655L193.968 169.078C194.111 169.16 194.159 169.343 194.077 169.486L193.182 171.036C193.099 171.179 192.917 171.228 192.774 171.146L192.041 170.722C191.926 170.656 191.783 170.674 191.682 170.759C191.302 171.083 190.862 171.34 190.382 171.511C190.258 171.555 190.171 171.671 190.171 171.803V172.648C190.171 172.813 190.037 172.947 189.872 172.947H188.082C187.917 172.947 187.783 172.813 187.783 172.648V171.803C187.783 171.671 187.696 171.555 187.572 171.511C187.092 171.34 186.653 171.083 186.272 170.759C186.172 170.674 186.028 170.656 185.914 170.722L185.18 171.146C185.038 171.228 184.855 171.179 184.773 171.036L183.877 169.486C183.795 169.343 183.844 169.16 183.987 169.078L184.719 168.655C184.834 168.589 184.89 168.456 184.866 168.326C184.822 168.082 184.799 167.831 184.799 167.575C184.799 167.319 184.822 167.068 184.866 166.824C184.89 166.694 184.834 166.561 184.719 166.495L183.987 166.072C183.844 165.99 183.795 165.807 183.877 165.664L184.773 164.114C184.855 163.971 185.038 163.922 185.18 164.004L185.914 164.428C186.028 164.494 186.172 164.476 186.272 164.391C186.653 164.067 187.092 163.81 187.572 163.639C187.696 163.595 187.783 163.479 187.783 163.347V162.502ZM188.977 169.366C189.966 169.366 190.768 168.564 190.768 167.575C190.768 166.586 189.966 165.784 188.977 165.784C187.988 165.784 187.187 166.586 187.187 167.575C187.187 168.564 187.988 169.366 188.977 169.366Z" fill="#2E3247" stroke="#9095AD" stroke-width="1.19375"/>
<path opacity="0.6" d="M170 48.4984H208.2" stroke="#2E3247" stroke-width="0.596875"/>
<path fill-rule="evenodd" clip-rule="evenodd" d="M192.084 23.7281C193.073 23.7281 193.875 24.5298 193.875 25.5188V34.4719L189.1 32.6813L184.325 34.4719V25.5188C184.325 24.5298 185.127 23.7281 186.116 23.7281H192.084ZM189.447 27.7702L189.1 26.4576L188.753 27.7702L187.397 27.6949L188.538 28.4309L188.048 29.6969L189.1 28.8392L190.153 29.6969L189.662 28.4309L190.803 27.6949L189.447 27.7702Z" fill="#2E3247"/>
<path d="M193.875 34.4719L193.665 35.0308C193.849 35.0995 194.054 35.074 194.215 34.9625C194.376 34.851 194.472 34.6677 194.472 34.4719H193.875ZM189.1 32.6813L189.31 32.1224C189.174 32.0717 189.026 32.0717 188.89 32.1224L189.1 32.6813ZM184.325 34.4719H183.728C183.728 34.6677 183.824 34.851 183.985 34.9625C184.146 35.074 184.351 35.0995 184.535 35.0308L184.325 34.4719ZM189.1 26.4576L189.677 26.3049C189.608 26.0431 189.371 25.8608 189.1 25.8608C188.829 25.8608 188.592 26.0431 188.523 26.3049L189.1 26.4576ZM189.447 27.7702L188.87 27.9229C188.943 28.1967 189.198 28.3819 189.48 28.3662L189.447 27.7702ZM190.803 27.6949L191.127 28.1965C191.354 28.0497 191.454 27.7681 191.371 27.5105C191.287 27.2529 191.04 27.0839 190.77 27.099L190.803 27.6949ZM189.662 28.4309L189.338 27.9293C189.1 28.0828 189.003 28.3824 189.105 28.6465L189.662 28.4309ZM190.153 29.6969L189.775 30.1596C189.985 30.3307 190.284 30.339 190.503 30.1798C190.722 30.0206 190.807 29.7338 190.709 29.4813L190.153 29.6969ZM189.1 28.8392L189.477 28.3765C189.258 28.1976 188.942 28.1976 188.723 28.3765L189.1 28.8392ZM188.048 29.6969L187.491 29.4813C187.393 29.7338 187.478 30.0206 187.697 30.1798C187.916 30.339 188.215 30.3307 188.425 30.1596L188.048 29.6969ZM188.538 28.4309L189.095 28.6465C189.197 28.3824 189.1 28.0828 188.862 27.9293L188.538 28.4309ZM187.397 27.6949L187.43 27.099C187.16 27.0839 186.913 27.2529 186.829 27.5105C186.746 27.7681 186.846 28.0497 187.074 28.1965L187.397 27.6949ZM188.753 27.7702L188.72 28.3662C189.002 28.3819 189.257 28.1967 189.33 27.9229L188.753 27.7702ZM193.278 25.5188V34.4719H194.472V25.5188H193.278ZM194.085 33.913L189.31 32.1224L188.89 33.2401L193.665 35.0308L194.085 33.913ZM188.89 32.1224L184.115 33.913L184.535 35.0308L189.31 33.2401L188.89 32.1224ZM186.116 24.325H192.084V23.1313H186.116V24.325ZM184.922 34.4719V25.5188H183.728V34.4719H184.922ZM188.523 26.6103L188.87 27.9229L190.024 27.6175L189.677 26.3049L188.523 26.6103ZM189.48 28.3662L190.836 28.2909L190.77 27.099L189.414 27.1742L189.48 28.3662ZM190.479 27.1933L189.338 27.9293L189.986 28.9324L191.127 28.1965L190.479 27.1933ZM189.105 28.6465L189.596 29.9125L190.709 29.4813L190.219 28.2152L189.105 28.6465ZM190.53 29.2342L189.477 28.3765L188.723 29.3018L189.775 30.1596L190.53 29.2342ZM188.723 28.3765L187.67 29.2342L188.425 30.1596L189.477 29.3018L188.723 28.3765ZM188.604 29.9125L189.095 28.6465L187.981 28.2152L187.491 29.4813L188.604 29.9125ZM188.862 27.9293L187.721 27.1933L187.074 28.1965L188.215 28.9324L188.862 27.9293ZM187.364 28.2909L188.72 28.3662L188.786 27.1742L187.43 27.099L187.364 28.2909ZM189.33 27.9229L189.677 26.6103L188.523 26.3049L188.176 27.6175L189.33 27.9229ZM186.116 23.1313C184.797 23.1313 183.728 24.2002 183.728 25.5188H184.922C184.922 24.8595 185.456 24.325 186.116 24.325V23.1313ZM194.472 25.5188C194.472 24.2002 193.403 23.1313 192.084 23.1313V24.325C192.744 24.325 193.278 24.8595 193.278 25.5188H194.472Z" fill="#D0D2E0"/>
<rect x="206.576" y="87.7204" width="2.3875" height="16.7125" fill="#1FA971"/>
<path d="M223.11 94.7048L220.722 98.2861L219.529 96.7939" stroke="#1FA971" stroke-width="1.19375" stroke-linecap="round" stroke-linejoin="round"/>
<rect x="206.576" y="106.008" width="2.3875" height="16.7125" fill="#1FA971"/>
<g clip-path="url(#clip9_2_9620)">
<path d="M223.11 112.992L220.722 116.574L219.529 115.082" stroke="#1FA971" stroke-width="1.19375" stroke-linecap="round" stroke-linejoin="round"/>
</g>
<rect x="206.576" y="125.21" width="2.3875" height="16.7125" fill="#1FA971"/>
<path d="M223.11 132.194L220.722 135.775L219.529 134.283" stroke="#1FA971" stroke-width="1.19375" stroke-linecap="round" stroke-linejoin="round"/>
<rect x="231.262" y="111.495" width="46.6324" height="7.31489" rx="3.65745" fill="#5A5F7A"/>
<rect x="231.262" y="145.325" width="46.6324" height="7.31489" rx="3.65745" fill="#5A5F7A"/>
<rect x="231.262" y="128.867" width="97.8367" height="7.31489" rx="3.65745" fill="#9095AD"/>
<rect x="231.262" y="93.207" width="97.8367" height="7.31489" rx="3.65745" fill="#9095AD"/>
<rect x="218.464" y="24.6304" width="59.4335" height="7.31489" rx="3.65745" fill="#747994"/>
<rect x="232.177" y="59.3749" width="59.4335" height="7.31489" rx="3.65745" fill="#D0D2E0"/>
<rect x="458.026" y="61.2043" width="136.24" height="7.31489" rx="3.65745" fill="#D0D2E0"/>
<rect x="598.835" y="61.2043" width="34.7457" height="7.31489" rx="3.65745" fill="#E1E3ED"/>
<rect x="888.691" y="28.2877" width="34.7457" height="7.31489" rx="3.65745" fill="#E1E3ED"/>
<rect x="346.475" y="24.6304" width="30.1739" height="7.31489" rx="3.65745" fill="#5A5F7A"/>
<rect x="231.262" y="162.699" width="97.8367" height="7.31489" rx="3.65745" fill="#9095AD"/>
</g>
<rect x="167.257" y="7.25691" width="769.486" height="435.236" rx="15.5441" stroke="#E1E3ED" stroke-width="5.48617"/>
<rect x="167.257" y="7.25691" width="769.486" height="435.236" rx="15.5441" stroke="url(#paint1_radial_2_9620)" stroke-opacity="0.9" stroke-width="5.48617"/>
</g>
</g>
<defs>
<filter id="filter0_d_2_9620" x="115.138" y="-4.62982" width="873.723" height="539.473" filterUnits="userSpaceOnUse" color-interpolation-filters="sRGB">
<feFlood flood-opacity="0" result="BackgroundImageFix"/>
<feColorMatrix in="SourceAlpha" type="matrix" values="0 0 0 0 0 0 0 0 0 0 0 0 0 0 0 0 0 0 127 0" result="hardAlpha"/>
<feOffset dy="40.2319"/>
<feGaussianBlur stdDeviation="24.6878"/>
<feComposite in2="hardAlpha" operator="out"/>
<feColorMatrix type="matrix" values="0 0 0 0 0 0 0 0 0 0.160784 0 0 0 0 0.105882 0 0 0 0.3 0"/>
<feBlend mode="normal" in2="BackgroundImageFix" result="effect1_dropShadow_2_9620"/>
<feBlend mode="normal" in="SourceGraphic" in2="effect1_dropShadow_2_9620" result="shape"/>
</filter>
<filter id="filter1_d_2_9620" x="385.789" y="48.2" width="549" height="34.0219" filterUnits="userSpaceOnUse" color-interpolation-filters="sRGB">
<feFlood flood-opacity="0" result="BackgroundImageFix"/>
<feColorMatrix in="SourceAlpha" type="matrix" values="0 0 0 0 0 0 0 0 0 0 0 0 0 0 0 0 0 0 127 0" result="hardAlpha"/>
<feOffset dy="0.596875"/>
<feComposite in2="hardAlpha" operator="out"/>
<feColorMatrix type="matrix" values="0 0 0 0 0.815686 0 0 0 0 0.823529 0 0 0 0 0.878431 0 0 0 1 0"/>
<feBlend mode="normal" in2="BackgroundImageFix" result="effect1_dropShadow_2_9620"/>
<feBlend mode="normal" in="SourceGraphic" in2="effect1_dropShadow_2_9620" result="shape"/>
</filter>
<filter id="filter2_b_2_9620" x="381.014" y="5.225" width="558.675" height="48.3469" filterUnits="userSpaceOnUse" color-interpolation-filters="sRGB">
<feFlood flood-opacity="0" result="BackgroundImageFix"/>
<feGaussianBlur in="BackgroundImage" stdDeviation="2.3875"/>
<feComposite in2="SourceAlpha" operator="in" result="effect1_backgroundBlur_2_9620"/>
<feBlend mode="normal" in="SourceGraphic" in2="effect1_backgroundBlur_2_9620" result="shape"/>
</filter>
<linearGradient id="paint0_linear_2_9620" x1="297.036" y1="81.625" x2="297.036" y2="91.175" gradientUnits="userSpaceOnUse">
<stop stop-color="#1B1E2E"/>
<stop offset="1" stop-color="#1B1E2E" stop-opacity="0"/>
</linearGradient>
<radialGradient id="paint1_radial_2_9620" cx="0" cy="0" r="1" gradientUnits="userSpaceOnUse" gradientTransform="translate(552 224.875) rotate(90) scale(214.875 382)">
<stop stop-color="#6470F3"/>
<stop offset="1" stop-opacity="0"/>
<stop offset="1" stop-opacity="0"/>
</radialGradient>
<clipPath id="clip0_2_9620">
<rect x="170" y="10" width="764" height="429.75" rx="12.8011" fill="white"/>
</clipPath>
<clipPath id="clip1_2_9620">
<rect width="9.55" height="9.55" fill="white" transform="translate(402.502 60.1375)"/>
</clipPath>
<clipPath id="clip2_2_9620">
<rect width="9.55" height="9.55" fill="white" transform="translate(402.502 24.325)"/>
</clipPath>
<clipPath id="clip3_2_9620">
<rect x="400.419" y="95.0364" width="524.332" height="358.43" rx="3.65745" fill="white"/>
</clipPath>
<clipPath id="clip4_2_9620">
<rect width="16.3854" height="16.3854" fill="white" transform="translate(650.809 106.813)"/>
</clipPath>
<clipPath id="clip5_2_9620">
<rect width="12.289" height="12.289" fill="white" transform="translate(412.193 255.305)"/>
</clipPath>
<clipPath id="clip6_2_9620">
<rect width="177.386" height="429.75" fill="white" transform="translate(208.4 10)"/>
</clipPath>
<clipPath id="clip7_2_9620">
<rect width="177" height="358.375" fill="white" transform="translate(208.4 81.625)"/>
</clipPath>
<clipPath id="clip8_2_9620">
<rect width="177" height="0.84691" fill="white" transform="translate(208.4 48.2)"/>
</clipPath>
<clipPath id="clip9_2_9620">
<rect width="7.1625" height="7.1625" fill="white" transform="translate(217.319 110.783)"/>
</clipPath>
</defs>
</svg>
