<svg width="730" height="856" viewBox="0 0 730 856" fill="none" xmlns="http://www.w3.org/2000/svg">
<path d="M235.028 765.027C168.254 710.886 101.875 634.665 80.7862 549.322C56.7992 451.976 95.7835 325.806 152.82 245.739C223.201 146.91 315.392 104.966 429.727 76.2315C429.727 76.2315 479.722 69.4927 490.038 84.8427C507.348 110.654 509.704 144.523 505.874 179.719C504.293 194.071 501.689 208.652 498.644 222.989C497.833 226.818 496.993 230.622 496.126 234.401C490.124 260.662 483.141 285.746 478.998 306.644C465.919 372.529 460.487 460.744 426.89 520.141C401.706 564.673 387.969 612.241 374.592 660.237C367.562 685.454 360.621 710.798 352.175 735.868C345.789 754.794 333.717 768.633 318.821 776.593C294.324 789.746 262.028 786.951 235.028 765.027Z" fill="#69D3A7"/>
<path d="M374.597 660.248C361.436 649.617 350.037 636.971 340.825 622.78C300.324 559.944 342.748 477.885 342.748 477.885C355.215 451.169 367.591 424.407 380.143 397.724C401.63 352.043 417.519 304.575 453.869 267.958C466.351 255.387 481.768 237.745 498.655 222.981C497.843 226.81 497.004 230.614 496.136 234.393C490.135 260.654 483.151 285.739 479.008 306.637C465.93 372.521 460.498 460.737 426.901 520.133C401.711 564.685 387.946 612.245 374.597 660.248Z" fill="#007780"/>
<path d="M644.182 335.203C644.182 335.203 640.83 414.874 619.709 469.753C598.589 524.631 579.082 580.862 548.314 608.028C517.545 635.194 455.824 629.795 418.68 588.622C381.536 547.449 399.825 475.811 399.825 475.811C404.849 452.743 409.812 429.664 414.875 406.614C423.56 367.136 428.083 327.335 448.46 292.134C461.565 269.456 479.403 231.125 502.478 219.379C524.693 208.078 582.887 222.598 605.795 251.545C628.703 280.493 642.152 291.475 644.179 335.215L644.182 335.203Z" fill="#B7E7F0"/>
</svg>
