<svg width="1041" height="945" viewBox="0 0 1041 945" fill="none" xmlns="http://www.w3.org/2000/svg">
<path d="M875.669 696.18C794.672 755.349 688.885 807.486 586.323 805.812C469.355 803.825 338.661 722.204 265.36 633.975C174.876 525.094 155.068 408.585 156.768 271.035C156.768 271.035 164.084 212.628 184.477 205.572C218.758 193.746 257.667 201.194 296.226 216.016C311.944 222.082 327.615 229.37 342.88 237.082C346.957 239.14 350.997 241.222 355.002 243.328C382.834 257.933 409.047 273.296 431.385 284.204C501.803 318.615 599.694 351.063 656.671 406.685C699.392 448.38 748.952 478.068 799.101 507.479C825.45 522.933 851.969 538.324 877.728 555.332C897.172 568.183 909.182 585.929 913.716 605.108C921.244 636.666 908.455 672.263 875.669 696.18Z" fill="#69D3A7"/>
<path d="M799.113 507.477C783.194 519.152 765.528 528.236 746.771 534.394C663.805 561.333 583.896 488.993 583.896 488.993C557.479 466.958 530.984 445.012 504.629 422.893C459.51 385.024 410.704 352.937 380.245 301.008C369.788 283.177 354.487 260.523 342.872 237.068C346.949 239.126 350.989 241.208 354.994 243.314C382.826 257.919 409.039 273.282 431.377 284.19C501.795 318.601 599.686 351.049 656.663 406.671C699.404 448.378 748.946 478.096 799.113 507.477Z" fill="#003131"/>
<path d="M508.542 127.272C508.542 127.272 582.355 156.456 625.632 196.096C668.908 235.735 714.11 274.136 727.362 314.855C740.614 355.574 710.695 417.935 656.913 443.228C603.13 468.521 542.903 426.415 542.903 426.415C523.162 413.755 503.386 401.155 483.678 388.461C449.927 366.705 414.198 349.166 389.187 316.647C373.063 295.72 344.077 264.828 342.278 237.074C340.551 210.357 377.657 154.603 414.18 140.15C450.703 125.697 466.473 115.273 508.553 127.278L508.542 127.272Z" fill="#A3E7CB"/>
</svg>
